<?xml version="1.0" encoding="UTF-8" standalone="no"?>
<!-- Created with Inkscape (http://www.inkscape.org/) -->

<svg
   width="195.98843mm"
   height="149.49767mm"
   viewBox="0 0 195.98843 149.49767"
   version="1.1"
   id="svg5"
   inkscape:version="1.2.2 (b0a8486541, 2022-12-01)"
   sodipodi:docname="cactus.svg"
   xmlns:inkscape="http://www.inkscape.org/namespaces/inkscape"
   xmlns:sodipodi="http://sodipodi.sourceforge.net/DTD/sodipodi-0.dtd"
   xmlns="http://www.w3.org/2000/svg"
   xmlns:svg="http://www.w3.org/2000/svg">
  <sodipodi:namedview
     id="namedview7"
     pagecolor="#ffffff"
     bordercolor="#000000"
     borderopacity="0.25"
     inkscape:showpageshadow="2"
     inkscape:pageopacity="0.0"
     inkscape:pagecheckerboard="0"
     inkscape:deskcolor="#d1d1d1"
     inkscape:document-units="mm"
     showgrid="false"
     inkscape:zoom="0.68506594"
     inkscape:cx="923.26879"
     inkscape:cy="561.9897"
     inkscape:window-width="1920"
     inkscape:window-height="935"
     inkscape:window-x="0"
     inkscape:window-y="32"
     inkscape:window-maximized="1"
     inkscape:current-layer="layer1" />
  <defs
     id="defs2">
    <inkscape:path-effect
       effect="taper_stroke"
       id="path-effect1204-3-7-6-0-3-1"
       is_visible="true"
       lpeversion="1"
       stroke_width="2.8101603"
       attach_start="0.3"
       end_offset="0.7"
       start_smoothing="0.5"
       end_smoothing="0.5"
       jointype="extrapolated"
       start_shape="center"
       end_shape="center"
       miter_limit="100" />
    <inkscape:path-effect
       effect="taper_stroke"
       id="path-effect1204-3-7-6-0-3-1-7"
       is_visible="true"
       lpeversion="1"
       stroke_width="2.8101603"
       attach_start="0.3"
       end_offset="0.7"
       start_smoothing="0.5"
       end_smoothing="0.5"
       jointype="extrapolated"
       start_shape="center"
       end_shape="center"
       miter_limit="100" />
    <inkscape:path-effect
       effect="taper_stroke"
       id="path-effect1204-3-7-6-0-3-1-9"
       is_visible="true"
       lpeversion="1"
       stroke_width="3.16553"
       attach_start="0.3"
       end_offset="0.7"
       start_smoothing="0.5"
       end_smoothing="0.5"
       jointype="extrapolated"
       start_shape="center"
       end_shape="center"
       miter_limit="100" />
    <inkscape:path-effect
       effect="taper_stroke"
       id="path-effect1204-3-7-6-0-3-1-9-6"
       is_visible="true"
       lpeversion="1"
       stroke_width="3.16553"
       attach_start="0.3"
       end_offset="0.7"
       start_smoothing="0.5"
       end_smoothing="0.5"
       jointype="extrapolated"
       start_shape="center"
       end_shape="center"
       miter_limit="100" />
    <inkscape:path-effect
       effect="taper_stroke"
       id="path-effect1204-3-7-6-0-3-1-9-6-6"
       is_visible="true"
       lpeversion="1"
       stroke_width="3.16553"
       attach_start="0.3"
       end_offset="0.7"
       start_smoothing="0.5"
       end_smoothing="0.5"
       jointype="extrapolated"
       start_shape="center"
       end_shape="center"
       miter_limit="100" />
    <inkscape:path-effect
       effect="taper_stroke"
       id="path-effect1204-3-7-6-0-3-1-9-6-6-6"
       is_visible="true"
       lpeversion="1"
       stroke_width="3.16553"
       attach_start="0.3"
       end_offset="0.7"
       start_smoothing="0.5"
       end_smoothing="0.5"
       jointype="extrapolated"
       start_shape="center"
       end_shape="center"
       miter_limit="100" />
    <inkscape:path-effect
       effect="taper_stroke"
       id="path-effect1204-3-7-6-0-3-1-9-6-6-6-8"
       is_visible="true"
       lpeversion="1"
       stroke_width="3.16553"
       attach_start="0.3"
       end_offset="0.7"
       start_smoothing="0.5"
       end_smoothing="0.5"
       jointype="extrapolated"
       start_shape="center"
       end_shape="center"
       miter_limit="100" />
    <inkscape:path-effect
       effect="taper_stroke"
       id="path-effect1204-3-7-6-0-3-1-9-6-6-6-8-9"
       is_visible="true"
       lpeversion="1"
       stroke_width="3.16553"
       attach_start="0.3"
       end_offset="0.7"
       start_smoothing="0.5"
       end_smoothing="0.5"
       jointype="extrapolated"
       start_shape="center"
       end_shape="center"
       miter_limit="100" />
    <inkscape:path-effect
       effect="taper_stroke"
       id="path-effect1204-3-7-6-0-3-1-9-6-6-6-8-9-0"
       is_visible="true"
       lpeversion="1"
       stroke_width="3.16553"
       attach_start="0.3"
       end_offset="0.7"
       start_smoothing="0.5"
       end_smoothing="0.5"
       jointype="extrapolated"
       start_shape="center"
       end_shape="center"
       miter_limit="100" />
    <inkscape:path-effect
       effect="taper_stroke"
       id="path-effect1204-3-7-6-0-3-1-9-6-6-6-8-9-0-3"
       is_visible="true"
       lpeversion="1"
       stroke_width="3.16553"
       attach_start="0.3"
       end_offset="0.7"
       start_smoothing="0.5"
       end_smoothing="0.5"
       jointype="extrapolated"
       start_shape="center"
       end_shape="center"
       miter_limit="100" />
    <filter
       style="color-interpolation-filters:sRGB"
       inkscape:label="Blur"
       id="filter1453-2"
       x="-0.2353213"
       y="-0.12822926"
       width="1.4706426"
       height="1.2564585">
      <feGaussianBlur
         stdDeviation="10.2279 2"
         result="blur"
         id="feGaussianBlur1451-2" />
    </filter>
  </defs>
  <g
     inkscape:label="Layer 1"
     inkscape:groupmode="layer"
     id="layer1"
     transform="translate(-347.21476,-88.664892)">
    <g
       id="g8802"
       transform="translate(-0.60263724,-9.6993244)">
      <ellipse
         style="fill:#000000;fill-opacity:0.315398;stroke:none;stroke-width:1.87005;stroke-linecap:round;stroke-linejoin:round;-inkscape-stroke:none;filter:url(#filter1453-2);stop-color:#000000"
         id="path751-8"
         cx="250.96509"
         cy="224.53857"
         rx="52.156261"
         ry="18.716476"
         transform="matrix(1.2775763,0,0,1.0545823,125.18456,-13.732574)" />
      <g
         id="g8466">
        <path
           style="fill:#26c306;fill-opacity:1;stroke:#000000;stroke-width:2.07727;stroke-linecap:round;stroke-linejoin:round;-inkscape-stroke:none;stop-color:#000000"
           d="m 416.41571,222.32838 c -9.20183,-3.51168 -18.5859,-21.73757 -19.27873,-38.12289 -0.69282,-16.38532 5.66591,-36.00156 13.67574,-49.30722 8.00983,-13.30566 18.00356,-25.53112 41.03258,-26.13755 23.02901,-0.60643 31.50804,9.98258 40.47949,24.35779 8.97145,14.37522 16.76929,35.49882 17.29957,50.02996 0.5303,14.53113 -7.84387,29.76875 -19.96554,37.02526 -12.12168,7.25652 -50.03433,12.72153 -73.24311,2.15465 z"
           id="path476"
           sodipodi:nodetypes="czzszszc" />
        <path
           style="fill:#26c306;fill-opacity:1;stroke:#000000;stroke-width:2.07727;stroke-linecap:round;stroke-linejoin:round;-inkscape-stroke:none;stop-color:#000000"
           d="m 445.68753,108.9395 c 0,0 -24.72982,36.55111 -25.65221,59.07428 -0.92238,22.52317 7.95984,57.53461 7.95984,57.53461"
           id="path1914"
           sodipodi:nodetypes="czc" />
        <path
           style="fill:#26c306;fill-opacity:1;stroke:#000000;stroke-width:2.07727;stroke-linecap:round;stroke-linejoin:round;-inkscape-stroke:none;stop-color:#000000"
           d="m 459.11913,108.72844 c 0,0 22.55031,35.56439 23.68524,55.98197 1.13493,20.41758 -10.0971,61.09925 -10.0971,61.09925"
           id="path1916"
           sodipodi:nodetypes="csc" />
        <path
           style="fill:#26c306;fill-opacity:1;stroke:#000000;stroke-width:2.07727;stroke-linecap:round;stroke-linejoin:round;-inkscape-stroke:none;stop-color:#000000"
           d="M 450.68719,228.34037 452.01351,108.5407"
           id="path1918"
           sodipodi:nodetypes="cc" />
        <path
           style="fill:#26c306;fill-opacity:1;stroke:none;stroke-width:2.07727;stroke-linecap:round;stroke-linejoin:round;-inkscape-stroke:none;stop-color:#000000"
           d="m 434.09862,183.28974 -24.84016,5.8842 c 0,0 4.16896,3.99114 3.89839,5.53679 -0.27053,1.54566 31.66023,5.22323 37.7344,5.1097 6.07415,-0.11353 41.09,-6.10901 41.09,-6.10901 l 2.04026,-3.80587 -29.52956,-8.62532 z"
           id="path2724" />
        <path
           style="fill:#ffffff;fill-opacity:1;stroke:#000000;stroke-width:2.07727;stroke-linecap:round;stroke-linejoin:round;-inkscape-stroke:none;stop-color:#000000"
           d="m 422.86249,167.11759 c 0,0 2.29711,-5.63569 10.33314,-6.10469 8.03603,-0.46902 14.39707,7.36582 14.39707,7.36582 0,0 -6.48269,5.42749 -13.88682,5.23438 -7.4041,-0.1931 -10.84339,-6.49551 -10.84339,-6.49551 z"
           id="path1920" />
        <path
           style="fill:#ffffff;fill-opacity:1;stroke:#000000;stroke-width:2.07727;stroke-linecap:round;stroke-linejoin:round;-inkscape-stroke:none;stop-color:#000000"
           d="m 456.27931,168.21932 c 0,0 2.41683,-8.11204 11.13503,-7.91358 8.60347,0.19585 11.9801,7.82174 11.9801,7.82174 0,0 -3.5204,4.34104 -11.4188,5.32936 -7.89842,0.98833 -11.69633,-5.23752 -11.69633,-5.23752 z"
           id="path1922"
           sodipodi:nodetypes="cscsc" />
        <path
           style="fill:#000000;fill-opacity:1;stroke:#000000;stroke-width:1.99867;stroke-linecap:round;stroke-linejoin:round;-inkscape-stroke:none;stop-color:#000000"
           d="m 430.9231,172.74523 c 0,0 -4.0461,-1.80476 -3.95733,-4.56998 0.0887,-2.76521 2.94692,-6.39776 2.94692,-6.39776 0,0 8.80752,-0.79825 11.23091,1.79673 2.42337,2.59499 0.63549,8.03896 0.63549,8.03896 0,0 -2.44519,2.71412 -10.85599,1.13205 z"
           id="path1978" />
        <path
           style="fill:#000000;fill-opacity:1;stroke:#000000;stroke-width:1.98527;stroke-linecap:round;stroke-linejoin:round;-inkscape-stroke:none;stop-color:#000000"
           d="m 462.38506,172.1783 c 0,0 -1.97362,-0.96877 -1.88613,-3.0966 0.0875,-2.12783 0.87253,-6.02353 0.87253,-6.02353 0,0 4.13698,-2.31272 5.43178,-2.31272 1.2948,0 6.98498,1.99262 6.98498,1.99262 0,0 1.07973,3.40366 1.07973,4.91672 0,1.51305 -1.62607,3.77845 -1.62607,3.77845 0,0 -4.26181,2.01701 -6.12365,2.12039 -1.86184,0.10336 -4.73317,-1.37533 -4.73317,-1.37533 z"
           id="path2034"
           sodipodi:nodetypes="cscscscsc" />
        <path
           style="fill:#ff7521;fill-opacity:1;stroke:#000000;stroke-width:2.07727;stroke-linecap:round;stroke-linejoin:round;-inkscape-stroke:none;stop-color:#000000"
           d="m 451.00981,170.7751 c -4.82703,0 -8.66465,7.59465 -8.66465,7.59465 0,0 -7.60897,1.0908 -7.58354,5.01151 0.0254,3.92072 2.63138,8.06097 8.13543,7.7875 5.50405,-0.27347 8.10789,-1.78076 8.10789,-1.78076 0,0 6.77752,2.96646 11.19082,2.01786 4.4133,-0.9486 4.15573,-9.66611 0.6033,-11.67867 -3.55245,-2.01257 -4.44484,-2.01257 -4.44484,-2.01257 0,0 -1.94556,-6.74903 -7.34441,-6.93952 z"
           id="path2036" />
        <path
           style="fill:none;fill-opacity:1;stroke:#000000;stroke-width:1.9025;stroke-linecap:round;stroke-linejoin:round;-inkscape-stroke:none;stop-color:#000000"
           d="m 419.78574,157.02262 c 0,0 10.4323,-1.00681 14.96762,-0.8655 4.53532,0.14132 12.9356,5.18205 12.9356,5.18205"
           id="path2092"
           sodipodi:nodetypes="csc" />
        <path
           style="fill:none;fill-opacity:1;stroke:#000000;stroke-width:1.99549;stroke-linecap:round;stroke-linejoin:round;-inkscape-stroke:none;stop-color:#000000"
           d="m 458.78042,159.79206 c 0,0 2.17847,-8.45953 10.39846,-8.19256 8.21997,0.26695 8.27543,8.57235 8.27543,8.57235"
           id="path2098"
           sodipodi:nodetypes="csc" />
        <path
           style="fill:none;fill-opacity:1;stroke:#000000;stroke-width:2.07727;stroke-linecap:round;stroke-linejoin:round;-inkscape-stroke:none;stop-color:#000000"
           d="m 409.15919,189.3081 c 0,0 4.33795,2.61886 4.04805,5.60274 -0.28991,2.98388 -3.5546,7.15813 -3.5546,7.15813"
           id="path2400" />
        <path
           style="fill:none;fill-opacity:1;stroke:#000000;stroke-width:2.07727;stroke-linecap:round;stroke-linejoin:round;-inkscape-stroke:none;stop-color:#000000"
           d="m 495.6189,188.54902 c 0,0 -3.85421,2.93603 -3.77907,5.11782 0.0751,2.18179 2.36392,5.40695 2.36392,5.40695"
           id="path2402" />
        <path
           style="fill:none;fill-opacity:1;stroke:#000000;stroke-width:2.07727;stroke-linecap:round;stroke-linejoin:round;-inkscape-stroke:none;stop-color:#000000"
           d="m 413.17471,194.78363 c 0,0 18.09599,4.88369 36.5842,4.57148 18.48821,-0.3122 41.74255,-5.79594 41.74255,-5.79594"
           id="path2404" />
        <path
           style="fill:none;fill-opacity:1;stroke:#000000;stroke-width:2.07727;stroke-linecap:round;stroke-linejoin:round;-inkscape-stroke:none;stop-color:#000000"
           d="m 434.42845,182.55469 -17.18318,4.69545"
           id="path2559" />
        <path
           style="fill:none;fill-opacity:1;stroke:#000000;stroke-width:2.07727;stroke-linecap:round;stroke-linejoin:round;-inkscape-stroke:none;stop-color:#000000"
           d="m 465.01738,181.67742 19.62058,4.6115"
           id="path2561" />
        <path
           style="fill:#d98941;fill-opacity:1;stroke:none;stroke-width:2.07727;stroke-linecap:round;stroke-linejoin:round;stroke-opacity:1;-inkscape-stroke:none;stop-color:#000000"
           d="m 413.87057,195.82262 c 0,0 29.65132,4.76947 37.90913,4.07396 8.2578,-0.69551 38.83723,-5.77811 38.83723,-5.77811 0,0 -31.78963,12.19508 -40.40833,12.12312 -8.6187,-0.072 -36.33803,-10.41897 -36.33803,-10.41897 z"
           id="path3401" />
        <path
           style="fill:none;fill-opacity:1;stroke:#000000;stroke-width:2.07727;stroke-linecap:round;stroke-linejoin:round;-inkscape-stroke:none;stop-color:#000000"
           d="m 447.61747,191.38331 -0.45593,4.03096"
           id="path2563" />
        <path
           style="fill:none;fill-opacity:1;stroke:#000000;stroke-width:2.07727;stroke-linecap:round;stroke-linejoin:round;-inkscape-stroke:none;stop-color:#000000"
           d="m 454.64422,191.3056 0.11621,4.4757"
           id="path2565" />
        <path
           style="fill:#000000;fill-opacity:1;stroke:none;stroke-width:1.81875;stroke-linecap:round;stroke-linejoin:round;-inkscape-stroke:none;stop-color:#000000"
           d="m 436.36121,189.3539 c 0,0 1.80044,-2.11318 6.15908,-1.98037 4.3586,0.13281 5.62689,3.38495 5.62689,3.38495 0,0 -5.86522,-0.0542 -6.996,-0.0542 -1.13083,0 -4.78997,-1.35036 -4.78997,-1.35036 z"
           id="path2915" />
        <path
           style="fill:#000000;fill-opacity:1;stroke:none;stroke-width:2.14524;stroke-linecap:round;stroke-linejoin:round;-inkscape-stroke:none;stop-color:#000000"
           d="m 453.49228,190.8768 c 0,0 1.18768,-3.18954 4.43256,-3.41966 3.24483,-0.23012 6.05085,2.55063 6.05085,2.55063 0,0 -0.53185,1.81166 -10.48341,0.86903 z"
           id="path2917" />
        <path
           style="fill:none;fill-opacity:1;stroke:#000000;stroke-width:2.07727;stroke-linecap:round;stroke-linejoin:round;stroke-opacity:1;-inkscape-stroke:none;stop-color:#000000"
           d="m 414.72835,196.13018 c 0,0 22.62997,10.22301 35.04975,9.99532 12.41978,-0.22768 41.27206,-11.97894 41.27206,-11.97894"
           id="path3399" />
        <path
           style="fill:#000000;fill-opacity:1;stroke:none;stroke-width:2.07727;stroke-linecap:round;stroke-linejoin:round;stroke-opacity:1;-inkscape-stroke:none;stop-color:#000000"
           d="m 435.68575,207.4492 c 0,0 9.51675,2.13567 13.55069,1.99913 4.03394,-0.13655 15.48646,-3.19305 15.48646,-3.19305 l -14.70962,11.4213 z"
           id="path3619" />
        <path
           style="fill:#000000;fill-opacity:1;stroke:none;stroke-width:2.07727;stroke-linecap:round;stroke-linejoin:round;stroke-opacity:1;-inkscape-stroke:none;stop-color:#000000"
           d="m 435.1365,186.35937 c -4.8846,0.9916 -3.05016,5.54362 -10.43098,5.34987 -7.38082,-0.19375 -23.0306,-6.52825 -24.62149,-12.17722 -1.59089,-5.64897 -19.16038,-7.95018 -19.16038,-7.95018 0,0 16.38442,9.4417 17.09152,13.57676 0.70713,4.13506 20.19742,10.22755 26.86317,10.03444 6.66576,-0.1931 16.09106,-3.94228 16.09106,-3.94228 z"
           id="path3784" />
        <path
           style="fill:#000000;fill-opacity:1;stroke:none;stroke-width:2.07727;stroke-linecap:round;stroke-linejoin:round;stroke-opacity:1;-inkscape-stroke:none;stop-color:#000000"
           d="m 466.24194,187.21245 c 4.8846,0.9916 3.05016,5.54362 10.43098,5.34987 7.38082,-0.19375 23.0306,-6.52825 24.62149,-12.17722 1.59089,-5.64897 19.16038,-7.95018 19.16038,-7.95018 0,0 -16.38442,9.4417 -17.09152,13.57676 -0.70713,4.13506 -20.19742,10.22755 -26.86317,10.03444 -6.66576,-0.1931 -16.09106,-3.94228 -16.09106,-3.94228 z"
           id="path3784-3" />
        <path
           sodipodi:type="star"
           style="fill:#e7e0a5;fill-opacity:1;stroke:#000000;stroke-width:2.07727;stroke-linecap:round;stroke-linejoin:round;stroke-opacity:1;-inkscape-stroke:none;stop-color:#000000"
           id="path4929"
           inkscape:flatsided="false"
           sodipodi:sides="7"
           sodipodi:cx="390.82565"
           sodipodi:cy="138.79282"
           sodipodi:r1="18.73979"
           sodipodi:r2="3.7479579"
           sodipodi:arg1="-2.1614335"
           sodipodi:arg2="-1.7126345"
           inkscape:rounded="0"
           inkscape:randomized="0"
           d="m 380.38964,123.22781 9.90619,11.85469 6.19229,-14.15351 -3.09196,15.13625 14.92648,-3.98324 -13.7618,7.0199 12.42074,9.18649 -14.06873,-6.38257 0.56192,15.4386 -3.78161,-14.97884 -11.72004,10.06513 9.35313,-12.29573 -15.17655,-2.88759 15.44477,-0.35369 z"
           inkscape:transform-center-x="0.58948842"
           inkscape:transform-center-y="0.34388736"
           transform="translate(40.308063,-5.6871723)" />
        <path
           sodipodi:type="star"
           style="fill:#e7e0a5;fill-opacity:1;stroke:#000000;stroke-width:2.07727;stroke-linecap:round;stroke-linejoin:round;stroke-opacity:1;-inkscape-stroke:none;stop-color:#000000"
           id="path4929-6"
           inkscape:flatsided="false"
           sodipodi:sides="7"
           sodipodi:cx="390.82565"
           sodipodi:cy="138.79282"
           sodipodi:r1="18.73979"
           sodipodi:r2="3.7479579"
           sodipodi:arg1="-2.1614335"
           sodipodi:arg2="-1.7126345"
           inkscape:rounded="0"
           inkscape:randomized="0"
           d="m 380.38964,123.22781 9.90619,11.85469 6.19229,-14.15351 -3.09196,15.13625 14.92648,-3.98324 -13.7618,7.0199 12.42074,9.18649 -14.06873,-6.38257 0.56192,15.4386 -3.78161,-14.97884 -11.72004,10.06513 9.35313,-12.29573 -15.17655,-2.88759 15.44477,-0.35369 z"
           inkscape:transform-center-x="0.58948842"
           inkscape:transform-center-y="0.34388736"
           transform="translate(81.631481,-7.8339722)" />
        <path
           sodipodi:type="star"
           style="fill:#e7e0a5;fill-opacity:1;stroke:#000000;stroke-width:2.07727;stroke-linecap:round;stroke-linejoin:round;stroke-opacity:1;-inkscape-stroke:none;stop-color:#000000"
           id="path4929-7"
           inkscape:flatsided="false"
           sodipodi:sides="7"
           sodipodi:cx="390.82565"
           sodipodi:cy="138.79282"
           sodipodi:r1="18.73979"
           sodipodi:r2="3.7479579"
           sodipodi:arg1="-2.1614335"
           sodipodi:arg2="-1.7126345"
           inkscape:rounded="0"
           inkscape:randomized="0"
           d="m 380.38964,123.22781 9.90619,11.85469 6.19229,-14.15351 -3.09196,15.13625 14.92648,-3.98324 -13.7618,7.0199 12.42074,9.18649 -14.06873,-6.38257 0.56192,15.4386 -3.78161,-14.97884 -11.72004,10.06513 9.35313,-12.29573 -15.17655,-2.88759 15.44477,-0.35369 z"
           inkscape:transform-center-x="-0.28943037"
           inkscape:transform-center-y="-0.047251497"
           transform="matrix(0.44004751,-0.0937927,0.21229843,0.99604121,301.01903,53.691499)" />
        <path
           sodipodi:type="star"
           style="fill:#e7e0a5;fill-opacity:1;stroke:#000000;stroke-width:2.07727;stroke-linecap:round;stroke-linejoin:round;stroke-opacity:1;-inkscape-stroke:none;stop-color:#000000"
           id="path4929-7-5"
           inkscape:flatsided="false"
           sodipodi:sides="7"
           sodipodi:cx="390.82565"
           sodipodi:cy="138.79282"
           sodipodi:r1="18.73979"
           sodipodi:r2="3.7479579"
           sodipodi:arg1="-2.1614335"
           sodipodi:arg2="-1.7126345"
           inkscape:rounded="0"
           inkscape:randomized="0"
           d="m 380.38964,123.22781 9.90619,11.85469 6.19229,-14.15351 -3.09196,15.13625 14.92648,-3.98324 -13.7618,7.0199 12.42074,9.18649 -14.06873,-6.38257 0.56192,15.4386 -3.78161,-14.97884 -11.72004,10.06513 9.35313,-12.29573 -15.17655,-2.88759 15.44477,-0.35369 z"
           inkscape:transform-center-x="0.28943347"
           inkscape:transform-center-y="-0.047251497"
           transform="matrix(-0.44004751,-0.0937927,-0.21229843,0.99604121,603.99777,54.180147)" />
        <path
           sodipodi:type="star"
           style="fill:#e7e0a5;fill-opacity:1;stroke:#000000;stroke-width:2.07727;stroke-linecap:round;stroke-linejoin:round;stroke-opacity:1;-inkscape-stroke:none;stop-color:#000000"
           id="path4929-7-3"
           inkscape:flatsided="false"
           sodipodi:sides="7"
           sodipodi:cx="390.82565"
           sodipodi:cy="138.79282"
           sodipodi:r1="18.73979"
           sodipodi:r2="3.7479579"
           sodipodi:arg1="-2.1614335"
           sodipodi:arg2="-1.7126345"
           inkscape:rounded="0"
           inkscape:randomized="0"
           d="m 380.38964,123.22781 9.90619,11.85469 6.19229,-14.15351 -3.09196,15.13625 14.92648,-3.98324 -13.7618,7.0199 12.42074,9.18649 -14.06873,-6.38257 0.56192,15.4386 -3.78161,-14.97884 -11.72004,10.06513 9.35313,-12.29573 -15.17655,-2.88759 15.44477,-0.35369 z"
           inkscape:transform-center-x="0.38089827"
           inkscape:transform-center-y="0.7368434"
           transform="matrix(0.4158543,0.17176752,-0.38879331,0.94128023,395.36104,7.173194)" />
        <path
           sodipodi:type="star"
           style="fill:#e7e0a5;fill-opacity:1;stroke:#000000;stroke-width:2.07727;stroke-linecap:round;stroke-linejoin:round;stroke-opacity:1;-inkscape-stroke:none;stop-color:#000000"
           id="path4929-7-3-5"
           inkscape:flatsided="false"
           sodipodi:sides="7"
           sodipodi:cx="390.82565"
           sodipodi:cy="138.79282"
           sodipodi:r1="18.73979"
           sodipodi:r2="3.7479579"
           sodipodi:arg1="-2.1614335"
           sodipodi:arg2="-1.7126345"
           inkscape:rounded="0"
           inkscape:randomized="0"
           d="m 380.38964,123.22781 9.90619,11.85469 6.19229,-14.15351 -3.09196,15.13625 14.92648,-3.98324 -13.7618,7.0199 12.42074,9.18649 -14.06873,-6.38257 0.56192,15.4386 -3.78161,-14.97884 -11.72004,10.06513 9.35313,-12.29573 -15.17655,-2.88759 15.44477,-0.35369 z"
           inkscape:transform-center-x="-0.38089517"
           inkscape:transform-center-y="0.7368434"
           transform="matrix(-0.4158543,0.17176752,0.38879331,0.94128023,514.1019,12.124932)" />
        <path
           style="fill:#000000;fill-rule:nonzero;stroke:none;stroke-width:2.81015;stroke-linecap:round;stroke-linejoin:round;stroke-opacity:1"
           d="m 479.91505,223.25453 c -1.21708,-1.69279 -3.57498,-2.56535 -3.57498,-2.56535 0,0 0.0762,2.51302 1.29333,4.20581 2.83985,3.94984 6.82052,7.07946 6.82052,7.07946 0,0 -1.69902,-4.77007 -4.53887,-8.71992 z"
           id="path312-6-5-2-9-6-2"
           inkscape:path-effect="#path-effect1204-3-7-6-0-3-1"
           inkscape:original-d="m 476.34007,220.68918 8.11385,11.28527" />
        <path
           style="fill:#000000;fill-rule:nonzero;stroke:none;stroke-width:2.81015;stroke-linecap:round;stroke-linejoin:round;stroke-opacity:1"
           d="m 428.72703,216.79978 c 1.21708,-1.69279 1.29333,-4.20581 1.29333,-4.20581 0,0 -2.3579,0.87256 -3.57498,2.56535 -2.83985,3.94985 -4.53887,8.71992 -4.53887,8.71992 0,0 3.98067,-3.12962 6.82052,-7.07946 z"
           id="path312-6-5-2-9-6-2-0"
           inkscape:path-effect="#path-effect1204-3-7-6-0-3-1-7"
           inkscape:original-d="m 430.02036,212.59397 -8.11385,11.28527" />
        <path
           style="fill:#000000;fill-rule:nonzero;stroke:none;stroke-width:3.16552;stroke-linecap:round;stroke-linejoin:round;stroke-opacity:1"
           d="m 490.46306,132.15986 c -1.23837,2.11108 -1.11152,5.02299 -1.11152,5.02299 0,0 2.60358,-1.31024 3.84194,-3.42131 2.88952,-4.92585 4.41382,-10.65253 4.41382,-10.65253 0,0 -4.25473,4.12501 -7.14424,9.05085 z"
           id="path312-6-5-2-9-6-2-3"
           inkscape:path-effect="#path-effect1204-3-7-6-0-3-1-9"
           inkscape:original-d="m 489.35154,137.18285 8.25576,-14.07384" />
        <path
           style="fill:#000000;fill-rule:nonzero;stroke:none;stroke-width:3.16552;stroke-linecap:round;stroke-linejoin:round;stroke-opacity:1"
           d="m 430.81319,116.52423 c 1.23836,2.11107 3.84194,3.42131 3.84194,3.42131 0,0 0.12685,-2.91191 -1.11152,-5.02299 -2.88951,-4.92584 -7.14424,-9.05085 -7.14424,-9.05085 0,0 1.5243,5.72668 4.41382,10.65253 z"
           id="path312-6-5-2-9-6-2-3-0"
           inkscape:path-effect="#path-effect1204-3-7-6-0-3-1-9-6"
           inkscape:original-d="M 434.65513,119.94554 426.39937,105.8717" />
        <path
           style="fill:#000000;fill-rule:nonzero;stroke:none;stroke-width:3.16552;stroke-linecap:round;stroke-linejoin:round;stroke-opacity:1"
           d="m 454.43882,109.73689 c -0.0687,2.44652 1.44477,4.93746 1.44477,4.93746 0,0 1.65083,-2.4021 1.71951,-4.84863 0.16026,-5.70854 -1.26162,-11.46151 -1.26162,-11.46151 0,0 -1.7424,5.66413 -1.90266,11.37268 z"
           id="path312-6-5-2-9-6-2-3-0-2"
           inkscape:path-effect="#path-effect1204-3-7-6-0-3-1-9-6-6"
           inkscape:original-d="m 455.88359,114.67435 0.45789,-16.31014" />
        <path
           style="fill:#000000;fill-rule:nonzero;stroke:none;stroke-width:3.16552;stroke-linecap:round;stroke-linejoin:round;stroke-opacity:1"
           d="m 400.68527,173.97604 c 2.2566,0.94758 5.126,0.43584 5.126,0.43584 0,0 -1.64381,-2.40691 -3.90041,-3.35449 -5.26541,-2.21103 -11.14361,-2.96274 -11.14361,-2.96274 0,0 4.65261,3.67036 9.91802,5.88139 z"
           id="path312-6-5-2-9-6-2-3-0-2-1"
           inkscape:path-effect="#path-effect1204-3-7-6-0-3-1-9-6-6-6"
           inkscape:original-d="m 405.81127,174.41188 -15.04402,-6.31723" />
        <path
           style="fill:#000000;fill-rule:nonzero;stroke:none;stroke-width:3.16552;stroke-linecap:round;stroke-linejoin:round;stroke-opacity:1"
           d="m 441.95826,224.84328 c -0.0826,-2.69348 -1.74723,-5.33844 -1.74723,-5.33844 0,0 -1.49942,2.742 -1.41682,5.43548 0.19274,6.28478 1.9675,12.52105 1.9675,12.52105 0,0 1.38928,-6.3333 1.19655,-12.61809 z"
           id="path312-6-5-2-9-6-2-3-0-2-1-7"
           inkscape:path-effect="#path-effect1204-3-7-6-0-3-1-9-6-6-6-8"
           inkscape:original-d="m 440.21103,219.50484 0.55068,17.95653" />
        <path
           style="fill:#000000;fill-rule:nonzero;stroke:none;stroke-width:3.16552;stroke-linecap:round;stroke-linejoin:round;stroke-opacity:1"
           d="m 465.65406,222.48695 c -0.91591,-2.53432 -3.32036,-4.53067 -3.32036,-4.53067 0,0 -0.57262,3.07228 0.34329,5.6066 2.13713,5.9134 5.7628,11.28884 5.7628,11.28884 0,0 -0.6486,-6.45137 -2.78573,-12.36477 z"
           id="path312-6-5-2-9-6-2-3-0-2-1-7-2"
           inkscape:path-effect="#path-effect1204-3-7-6-0-3-1-9-6-6-6-8-9"
           inkscape:original-d="m 462.3337,217.95628 6.10609,16.89544" />
        <path
           style="fill:#000000;fill-rule:nonzero;stroke:none;stroke-width:3.16552;stroke-linecap:round;stroke-linejoin:round;stroke-opacity:1"
           d="m 480.96775,176.79307 c -2.6357,0.56099 -4.94191,2.67007 -4.94191,2.67007 0,0 2.96521,0.98709 5.60091,0.4261 6.14998,-1.30898 11.97046,-4.16605 11.97046,-4.16605 0,0 -6.47948,-0.2391 -12.62946,1.06988 z"
           id="path312-6-5-2-9-6-2-3-0-2-1-7-2-2"
           inkscape:path-effect="#path-effect1204-3-7-6-0-3-1-9-6-6-6-8-9-0"
           inkscape:original-d="m 476.02584,179.46314 17.57137,-3.73995"
           inkscape:transform-center-x="13.254436"
           inkscape:transform-center-y="1.4536617" />
        <path
           style="fill:#000000;fill-rule:nonzero;stroke:none;stroke-width:3.16552;stroke-linecap:round;stroke-linejoin:round;stroke-opacity:1"
           d="m 420.97665,150.23814 c 2.6357,0.56099 5.60091,-0.4261 5.60091,-0.4261 0,0 -2.30621,-2.10908 -4.94191,-2.67007 -6.14998,-1.30898 -12.62946,-1.06988 -12.62946,-1.06988 0,0 5.82048,2.85707 11.97046,4.16605 z"
           id="path312-6-5-2-9-6-2-3-0-2-1-7-2-2-7"
           inkscape:path-effect="#path-effect1204-3-7-6-0-3-1-9-6-6-6-8-9-0-3"
           inkscape:original-d="m 426.57756,149.81204 -17.57137,-3.73995"
           inkscape:transform-center-x="-13.254434"
           inkscape:transform-center-y="1.4536617" />
      </g>
    </g>
  </g>
</svg>
