<?xml version="1.0" encoding="UTF-8" standalone="no"?>
<!-- Created with Inkscape (http://www.inkscape.org/) -->

<svg
   width="256mm"
   height="256mm"
   viewBox="0 0 256 256"
   version="1.1"
   id="svg5"
   inkscape:version="1.2.2 (b0a8486541, 2022-12-01)"
   sodipodi:docname="bus.svg"
   xmlns:inkscape="http://www.inkscape.org/namespaces/inkscape"
   xmlns:sodipodi="http://sodipodi.sourceforge.net/DTD/sodipodi-0.dtd"
   xmlns="http://www.w3.org/2000/svg"
   xmlns:svg="http://www.w3.org/2000/svg">
  <sodipodi:namedview
     id="namedview7"
     pagecolor="#ffffff"
     bordercolor="#000000"
     borderopacity="0.25"
     inkscape:showpageshadow="2"
     inkscape:pageopacity="0.0"
     inkscape:pagecheckerboard="0"
     inkscape:deskcolor="#d1d1d1"
     inkscape:document-units="mm"
     showgrid="false"
     inkscape:zoom="0.68506595"
     inkscape:cx="497.7623"
     inkscape:cy="467.10832"
     inkscape:window-width="1920"
     inkscape:window-height="935"
     inkscape:window-x="0"
     inkscape:window-y="32"
     inkscape:window-maximized="1"
     inkscape:current-layer="layer1" />
  <defs
     id="defs2">
    <inkscape:path-effect
       effect="bend_path"
       id="path-effect1054"
       is_visible="true"
       lpeversion="1"
       bendpath="m 92.326234,147.63673 c 7.706596,-1.53014 14.616076,-1.06923 21.282016,0"
       prop_scale="1"
       scale_y_rel="false"
       vertical="false"
       hide_knot="false"
       bendpath-nodetypes="cc" />
    <inkscape:path-effect
       effect="bend_path"
       id="path-effect10790"
       is_visible="true"
       lpeversion="1"
       bendpath="m 88.445933,164.76601 c 6.123371,-1.84462 11.886297,-1.19137 17.571567,0"
       prop_scale="1"
       scale_y_rel="false"
       vertical="false"
       hide_knot="false"
       bendpath-nodetypes="cc" />
  </defs>
  <g
     inkscape:label="Layer 1"
     inkscape:groupmode="layer"
     id="layer1">
    <g
       id="g7519"
       transform="matrix(3.7418108,0,0,3.7418108,-310.20172,-485.27267)"
       inkscape:export-filename="desert_bus.png"
       inkscape:export-xdpi="101.92366"
       inkscape:export-ydpi="101.92366">
      <path
         style="fill:#ff0202;fill-opacity:1;stroke:#000000;stroke-width:0.880999;stroke-linecap:round;stroke-linejoin:round;stroke-dasharray:none;stroke-dashoffset:0;stroke-opacity:1;stop-color:#000000"
         d="m 142.27226,163.21695 2.44673,0.67437 0.91615,5.8175 -0.82268,6.34118 -3.62673,2.36458 -5.61035,-2.95882 -1.34964,-2.59477 1.17949,-7.07044 3.30928,-3.08816 z"
         id="path7459" />
      <path
         style="fill:#fefefe;fill-opacity:1;stroke:none;stroke-width:0.880999;stroke-linecap:round;stroke-linejoin:round;stroke-dasharray:none;stroke-dashoffset:0;stroke-opacity:1;stop-color:#000000"
         d="m 139.04414,164.33159 4.1949,0.80735 1.17878,4.74711 -0.59155,5.2961 -2.70744,1.43975 -4.61038,-2.11725 -1.09409,-1.8529 1.04267,-6.20076 z"
         id="path7515" />
    </g>
    <path
       style="fill:#212121;fill-opacity:1;stroke:#000000;stroke-width:3.29653;stroke-linecap:round;stroke-linejoin:round;stroke-dasharray:none;stroke-dashoffset:0;stroke-opacity:1;stop-color:#000000"
       d="m 58.327029,199.93845 -0.438113,29.4449 c 0,0 1.185383,6.0996 7.889207,6.0996 6.703829,0 10.053176,-5.84194 10.053176,-5.84194 l 0.164153,-28.12093 z"
       id="path2722-3" />
    <path
       style="fill:#212121;fill-opacity:1;stroke:#000000;stroke-width:3.29653;stroke-linecap:round;stroke-linejoin:round;stroke-dasharray:none;stroke-dashoffset:0;stroke-opacity:1;stop-color:#000000"
       d="m 185.77561,195.79256 -0.43813,29.4449 c 0,0 1.18537,6.09961 7.88919,6.09961 6.70383,0 10.0532,-5.84194 10.0532,-5.84194 l 0.16427,-28.12094 z"
       id="path2722-3-6" />
    <path
       style="fill:#212121;fill-opacity:1;stroke:#000000;stroke-width:3.29653;stroke-linecap:round;stroke-linejoin:round;stroke-dasharray:none;stroke-dashoffset:0;stroke-opacity:1;stop-color:#000000"
       d="m 172.22913,181.39348 -0.43809,29.44491 c 0,0 1.18537,6.09959 7.88919,6.09959 6.70383,0 10.05316,-5.84193 10.05316,-5.84193 l 0.16427,-28.12095 z"
       id="path2722-3-7" />
    <path
       style="fill:#212121;fill-opacity:1;stroke:#000000;stroke-width:3.29653;stroke-linecap:round;stroke-linejoin:round;stroke-dasharray:none;stroke-dashoffset:0;stroke-opacity:1;stop-color:#000000"
       d="m 77.710152,183.37391 -0.438091,29.4449 c 0,0 1.185368,6.0996 7.889196,6.0996 6.703828,0 10.05316,-5.84193 10.05316,-5.84193 l 0.164266,-28.12095 z"
       id="path2722-3-5" />
    <path
       style="fill:#fcff05;fill-opacity:1;stroke:#000000;stroke-width:3.16017;stroke-linecap:round;stroke-linejoin:round;stroke-dasharray:none;stroke-dashoffset:0;stroke-opacity:1;stop-color:#000000"
       d="m 24.82072,33.696725 c 0,0 27.617272,-23.44192 104.25946,-23.529104 76.6422,-0.08718 102.33235,24.861713 102.33235,24.861713 L 218.57909,188.74112 37.94011,189.14348 Z"
       id="path1730"
       sodipodi:nodetypes="cscccc" />
    <path
       style="fill:#707070;fill-opacity:1;stroke:#000000;stroke-width:3.29653;stroke-linecap:round;stroke-linejoin:round;stroke-dasharray:none;stroke-dashoffset:0;stroke-opacity:1;stop-color:#000000"
       d="m 35.567971,189.24814 -5.995676,20.79433 201.383915,0.62922 -11.60492,-22.25981 z"
       id="path2608"
       sodipodi:nodetypes="ccccc" />
    <path
       style="fill:#212121;fill-opacity:1;stroke:#000000;stroke-width:3.29653;stroke-linecap:round;stroke-linejoin:round;stroke-dasharray:none;stroke-dashoffset:0;stroke-opacity:1;stop-color:#000000"
       d="m 44.912518,210.10993 -0.438113,29.4449 c 0,0 1.185383,6.0996 7.889207,6.0996 6.703828,0 10.053175,-5.84194 10.053175,-5.84194 l 0.164153,-28.12093 z"
       id="path2722" />
    <path
       style="fill:#212121;fill-opacity:1;stroke:#000000;stroke-width:3.29653;stroke-linecap:round;stroke-linejoin:round;stroke-dasharray:none;stroke-dashoffset:0;stroke-opacity:1;stop-color:#000000"
       d="m 198.77627,212.29245 -1.31888,27.33939 c 0,0 4.69189,5.99726 9.95887,5.99726 5.26697,0 8.343,-5.56074 8.343,-5.56074 l -0.0655,-27.738 z"
       id="path2778" />
    <path
       style="fill:#2d2d2d;fill-opacity:1;stroke:#000000;stroke-width:3.29653;stroke-linecap:round;stroke-linejoin:round;stroke-dasharray:none;stroke-dashoffset:0;stroke-opacity:1;stop-color:#000000"
       d="m 44.458962,49.131321 2.819223,69.645279 c 0,0 62.568635,-1.99162 76.733875,-1.48068 14.16525,0.51095 86.09426,4.15573 86.09426,4.15573 l 6.00617,-68.282204 c 0,0 -54.48952,-12.38038 -89.11768,-11.795086 -34.628131,0.585257 -82.535848,7.756961 -82.535848,7.756961 z"
       id="path2860" />
    <path
       style="fill:#fffffd;fill-opacity:1;stroke:none;stroke-width:3.29653;stroke-linecap:round;stroke-linejoin:round;stroke-dasharray:none;stroke-dashoffset:0;stroke-opacity:1;stop-color:#000000"
       d="m 151.18594,44.206649 61.05785,47.75905 1.02466,-8.362199 -52.50572,-40.908917 z"
       id="path2972" />
    <path
       style="fill:#fffffd;fill-opacity:1;stroke:none;stroke-width:1.66055;stroke-linecap:round;stroke-linejoin:round;stroke-dasharray:none;stroke-dashoffset:0;stroke-opacity:1;stop-color:#000000"
       d="m 185.76973,48.203202 29.06762,25.455351 0.48782,-4.45702 -24.99623,-21.804242 z"
       id="path2972-3" />
    <path
       style="fill:#fffffd;fill-opacity:1;stroke:none;stroke-width:3.29653;stroke-linecap:round;stroke-linejoin:round;stroke-dasharray:none;stroke-dashoffset:0;stroke-opacity:1;stop-color:#000000"
       d="m 45.69834,49.973153 79.86956,67.140657 10.34861,0.51038 -80.561392,-69.367218 z"
       id="path2972-5"
       sodipodi:nodetypes="ccccc" />
    <path
       style="fill:#fffffd;fill-opacity:1;stroke:none;stroke-width:1.90462;stroke-linecap:round;stroke-linejoin:round;stroke-dasharray:none;stroke-dashoffset:0;stroke-opacity:1;stop-color:#000000"
       d="m 45.542781,83.450049 32.02553,33.314581 9.501554,0.86031 -43.006468,-43.479203 z"
       id="path2972-5-6"
       sodipodi:nodetypes="ccccc" />
    <path
       style="fill:none;fill-opacity:1;stroke:#000000;stroke-width:3.29653;stroke-linecap:round;stroke-linejoin:round;stroke-dasharray:none;stroke-dashoffset:0;stroke-opacity:1;stop-color:#000000"
       d="m 44.673327,48.56294 2.81923,69.64528 c 0,0 62.568613,-1.99162 76.733833,-1.48068 14.16532,0.51095 86.09434,4.15573 86.09434,4.15573 l 6.00616,-68.282206 c 0,0 -54.48951,-12.380379 -89.11771,-11.795085 -34.628141,0.585256 -82.535853,7.756961 -82.535853,7.756961 z"
       id="path2860-2" />
    <path
       style="fill:#ff1717;fill-opacity:1;stroke:#000000;stroke-width:3.29653;stroke-linecap:round;stroke-linejoin:round;stroke-dasharray:none;stroke-dashoffset:0;stroke-opacity:1;stop-color:#000000"
       d="m 34.60237,174.07981 c 0,0 -1.550161,14.95628 14.961485,14.96298 16.511634,0.007 14.020658,-15.26506 14.020658,-15.26506 z"
       id="path4244"
       sodipodi:nodetypes="cccc" />
    <path
       style="fill:#c5ca78;fill-opacity:1;stroke:none;stroke-width:3.29653;stroke-linecap:round;stroke-linejoin:round;stroke-dasharray:none;stroke-dashoffset:0;stroke-opacity:1;stop-color:#000000"
       d="m 53.724261,184.47026 -4.780911,-8.18282 10.641953,0.12797 z"
       id="path4300" />
    <path
       style="fill:#ff1717;fill-opacity:1;stroke:#000000;stroke-width:3.29653;stroke-linecap:round;stroke-linejoin:round;stroke-dasharray:none;stroke-dashoffset:0;stroke-opacity:1;stop-color:#000000"
       d="m 194.16954,173.73328 c 0,0 -1.55016,14.95628 14.96148,14.96298 16.51163,0.007 14.02067,-15.26506 14.02067,-15.26506 z"
       id="path4244-1"
       sodipodi:nodetypes="cccc" />
    <path
       style="fill:#c5ca78;fill-opacity:1;stroke:none;stroke-width:3.29653;stroke-linecap:round;stroke-linejoin:round;stroke-dasharray:none;stroke-dashoffset:0;stroke-opacity:1;stop-color:#000000"
       d="m 213.29142,184.12373 -4.78091,-8.18282 10.64197,0.12797 z"
       id="path4300-2" />
    <path
       style="fill:#ffff00;fill-opacity:1;stroke:#000000;stroke-width:3.29653;stroke-linecap:round;stroke-linejoin:round;stroke-dasharray:none;stroke-dashoffset:0;stroke-opacity:1;stop-color:#000000"
       d="m 29.002204,174.2028 c 0,0 -5.557109,-19.02789 19.425918,-18.42497 24.983026,0.60292 21.199082,18.64454 21.199082,18.64454 z"
       id="path4107"
       sodipodi:nodetypes="cscc" />
    <path
       style="fill:#ffff00;fill-opacity:1;stroke:#000000;stroke-width:3.29653;stroke-linecap:round;stroke-linejoin:round;stroke-dasharray:none;stroke-dashoffset:0;stroke-opacity:1;stop-color:#000000"
       d="m 187.98836,173.77418 c 0,0 -5.55711,-19.02789 19.42591,-18.42498 24.98303,0.60292 21.19908,18.64455 21.19908,18.64455 z"
       id="path4107-9"
       sodipodi:nodetypes="cscc" />
    <path
       style="fill:#ffff00;fill-opacity:1;stroke:#000000;stroke-width:3.29653;stroke-linecap:round;stroke-linejoin:round;stroke-dasharray:none;stroke-dashoffset:0;stroke-opacity:1;stop-color:#000000"
       d="M 79.670662,117.23467 75.195778,44.650203 86.205136,43.295331 89.64929,116.943 Z"
       id="path9199" />
    <path
       style="fill:#ffff00;fill-opacity:1;stroke:#000000;stroke-width:3.29653;stroke-linecap:round;stroke-linejoin:round;stroke-dasharray:none;stroke-dashoffset:0;stroke-opacity:1;stop-color:#000000"
       d="m 168.3873,118.90734 4.47491,-72.584473 -11.00938,-1.354872 -3.44415,73.647665 z"
       id="path9199-7" />
    <path
       style="fill:#ffff00;fill-opacity:1;stroke:#000000;stroke-width:3.29653;stroke-linecap:round;stroke-linejoin:round;stroke-dasharray:none;stroke-dashoffset:0;stroke-opacity:1;stop-color:#000000"
       d="m 79.099628,118.39647 2.310389,70.10245 88.374853,0.93489 -0.86911,-70.8699 -46.70368,-1.06162 z"
       id="path9228" />
    <path
       style="fill:#2d2d2d;fill-opacity:1;stroke:#000000;stroke-width:3.29653;stroke-linecap:round;stroke-linejoin:round;stroke-dasharray:none;stroke-dashoffset:0;stroke-opacity:1;stop-color:#000000"
       d="m 88.934364,152.60073 0.758327,26.45176 68.764259,2.08482 0.60243,-28.43439 z"
       id="path9956"
       sodipodi:nodetypes="ccccc" />
    <path
       style="fill:#777777;fill-opacity:1;stroke:#010101;stroke-width:3.21422;stroke-linecap:round;stroke-linejoin:round;stroke-dasharray:none;stroke-dashoffset:0;stroke-opacity:1;stop-color:#000000"
       d="m 90.470553,125.01064 c -6.649051,0 0.07712,18.19946 0.07712,18.19946 0,0 8.648167,-17.93858 -0.07712,-18.19946 z"
       id="path9958" />
    <ellipse
       style="fill:#ff1717;fill-opacity:1;stroke:#010101;stroke-width:3.21421;stroke-linecap:round;stroke-linejoin:round;stroke-dasharray:none;stroke-dashoffset:0;stroke-opacity:1;stop-color:#000000"
       id="path10284"
       cx="54.281624"
       cy="140.78291"
       rx="10.300911"
       ry="10.636048" />
    <ellipse
       style="fill:#ff1717;fill-opacity:1;stroke:#010101;stroke-width:3.21421;stroke-linecap:round;stroke-linejoin:round;stroke-dasharray:none;stroke-dashoffset:0;stroke-opacity:1;stop-color:#000000"
       id="path10284-9"
       cx="196.56996"
       cy="140.52045"
       rx="10.300911"
       ry="10.636048" />
    <ellipse
       style="fill:#c5ca78;fill-opacity:1;stroke:none;stroke-width:3.21421;stroke-linecap:round;stroke-linejoin:round;stroke-dasharray:none;stroke-dashoffset:0;stroke-opacity:1;stop-color:#000000"
       id="path10641"
       cx="56.617401"
       cy="137.50232"
       rx="3.5765672"
       ry="3.6380761" />
    <ellipse
       style="fill:#c5ca78;fill-opacity:1;stroke:none;stroke-width:3.21421;stroke-linecap:round;stroke-linejoin:round;stroke-dasharray:none;stroke-dashoffset:0;stroke-opacity:1;stop-color:#000000"
       id="path10641-3"
       cx="199.11066"
       cy="138.61414"
       rx="3.5765672"
       ry="3.6380761" />
    <path
       style="fill:#707070;fill-opacity:1;stroke:#000000;stroke-width:3.29653;stroke-linecap:round;stroke-linejoin:round;stroke-dasharray:none;stroke-dashoffset:0;stroke-opacity:1;stop-color:#000000"
       d="m 94.656446,187.23759 63.489414,1.26091 -12.79314,27.32589 -39.33442,-0.04 z"
       id="path2664"
       sodipodi:nodetypes="ccccc" />
    <path
       style="fill:#ffffff;fill-opacity:1;stroke:#000000;stroke-width:3.13424;stroke-linecap:round;stroke-linejoin:round;stroke-dasharray:none;stroke-dashoffset:0;stroke-opacity:1;stop-color:#000000"
       d="m 101.85818,193.27631 47.8863,0.18447 -8.66151,17.00855 -30.2714,-0.43981 z"
       id="path2666"
       sodipodi:nodetypes="ccccc" />
    <text
       xml:space="preserve"
       style="font-weight:bold;font-size:10.7616px;font-family:D050000L;-inkscape-font-specification:'D050000L Bold';fill:#000000;fill-opacity:1;stroke:none;stroke-width:1.11979;stroke-linecap:round;stroke-linejoin:round;stroke-dasharray:none;stroke-dashoffset:0;stroke-opacity:1;stop-color:#000000"
       x="116.25352"
       y="196.35442"
       id="text6650"
       transform="scale(0.95248236,1.0498882)"><tspan
         sodipodi:role="line"
         id="tspan6648"
         style="stroke-width:1.11979"
         x="116.25352"
         y="196.35442">ケ１２</tspan></text>
    <g
       aria-label="運転上手"
       transform="matrix(3.6196651,0,0,3.8680782,-245.46575,-543.12537)"
       id="text430"
       style="font-weight:bold;font-size:5.40839px;font-family:D050000L;-inkscape-font-specification:'D050000L Bold';stroke-width:0.548716;stroke-linecap:round;stroke-linejoin:round;stop-color:#000000"
       inkscape:path-effect="#path-effect1054"
       class="UnoptimicedTransforms">
      <path
         d="m 91.917907,145.65278 c 0.366887,0.19549 0.799303,0.49386 1.002431,0.7301 0.156446,-0.16718 0.314575,-0.33354 0.474352,-0.49908 -0.223036,-0.22901 -0.662072,-0.50867 -1.037254,-0.68933 -0.147894,0.15206 -0.294412,0.30483 -0.439529,0.45831 z m 1.457485,-0.60358 0.121304,0.73001 c 0.193989,-0.032 0.388087,-0.0629 0.582288,-0.0926 l -0.04271,-0.27751 c 0.771919,-0.11804 1.545317,-0.21812 2.319676,-0.30116 l 0.02995,0.279 c 0.206011,-0.0221 0.412099,-0.043 0.618254,-0.0627 l -0.07023,-0.73596 c -1.188257,0.11349 -2.375043,0.26606 -3.558538,0.4609 z m 0.06296,1.95046 c -0.410627,0.0704 -0.82057,0.14619 -1.229743,0.22757 l 0.117371,0.58877 c 0.200134,-0.0399 0.400474,-0.0785 0.601011,-0.11576 l 0.215943,1.1639 c -0.177641,0.2186 -0.379381,0.43723 -0.549481,0.61389 0.139415,0.19062 0.277455,0.3818 0.414134,0.57353 0.215724,-0.2823 0.382616,-0.51612 0.552658,-0.76935 0.388074,0.35958 0.816304,0.44237 1.432677,0.37824 0.43436,-0.0455 1.909477,-0.2377 2.354551,-0.30329 0.01338,-0.18682 0.07803,-0.48873 0.137617,-0.64713 -0.585631,0.10693 -2.085565,0.30584 -2.574267,0.3568 -0.529537,0.0566 -0.91962,-0.035 -1.178938,-0.35794 -0.09784,-0.56974 -0.195689,-1.13949 -0.293533,-1.70923 z m 1.142092,0.34225 c 0.182232,-0.0271 0.364599,-0.0532 0.547092,-0.0782 l 0.02932,0.21392 c -0.181683,0.0249 -0.363234,0.0509 -0.544646,0.0779 -0.01059,-0.0712 -0.02117,-0.14241 -0.03176,-0.21362 z m 1.170198,-0.15951 c 0.189941,-0.0236 0.380009,-0.046 0.570196,-0.0674 l 0.0241,0.21451 c -0.18937,0.0213 -0.378614,0.0437 -0.567725,0.0671 z m -1.255161,-0.4119 c 0.184427,-0.0274 0.368974,-0.0537 0.553635,-0.079 l 0.02858,0.20856 c -0.18387,0.0252 -0.367623,0.0514 -0.55125,0.0787 z m 1.184079,-0.16118 c 0.192159,-0.0238 0.38443,-0.0465 0.576805,-0.0681 l 0.0235,0.20914 c -0.191578,0.0215 -0.383046,0.0441 -0.574396,0.0678 z m -1.816661,1.66623 0.07752,0.46351 c 0.452485,-0.0761 0.906135,-0.14533 1.360822,-0.20786 l 0.04764,0.34762 c 0.200586,-0.0276 0.401388,-0.0539 0.602395,-0.0789 l -0.04318,-0.34814 c 0.478275,-0.0595 0.95763,-0.11169 1.437915,-0.15693 l -0.04406,-0.46741 c -0.484782,0.0457 -0.968716,0.0984 -1.451654,0.15838 l -0.02392,-0.19282 c 0.378692,-0.047 0.757971,-0.0896 1.137766,-0.12783 l -0.159449,-1.58391 c -0.391799,0.0394 -0.783255,0.0833 -1.174295,0.13174 l -0.02458,-0.19817 c 0.421942,-0.0522 0.844338,-0.0992 1.267101,-0.14103 l -0.04357,-0.44034 c -0.426342,0.0422 -0.852372,0.0895 -1.278003,0.1422 l -0.03388,-0.27316 c -0.215822,0.0267 -0.431552,0.0547 -0.647178,0.0842 l 0.03738,0.27274 c -0.414112,0.0565 -0.827803,0.11819 -1.240991,0.1851 l 0.07119,0.43711 c 0.409436,-0.0664 0.819428,-0.12759 1.229894,-0.18369 l 0.02712,0.19788 c -0.372318,0.0509 -0.744224,0.10602 -1.115656,0.16545 l 0.252523,1.57307 c 0.359171,-0.0578 0.718973,-0.11141 1.079343,-0.16088 l 0.02638,0.19252 c -0.459196,0.0631 -0.91743,0.13287 -1.374574,0.20962 z"
         style="stroke-width:0.548717"
         id="path1045"
         inkscape:original-d="m 92.412768,145.61128 c 0.30287,0.25961 0.665232,0.63819 0.816667,0.90321 l 0.53543,-0.41104 c -0.173068,-0.2596 -0.546247,-0.61656 -0.859934,-0.85994 z m 1.465674,-0.33532 v 0.74095 h 0.567881 v -0.28123 h 2.244481 v 0.28123 h 0.600332 v -0.74095 z m -0.254195,1.93621 h -1.233113 v 0.60033 h 0.611148 v 1.18444 c -0.221744,0.18388 -0.465121,0.35695 -0.676048,0.49757 l 0.308278,0.6436 c 0.275828,-0.23256 0.497572,-0.43808 0.713907,-0.65442 0.329912,0.42186 0.762583,0.5787 1.41159,0.60574 0.659824,0.027 1.817219,0.0162 2.48786,-0.0162 0.03245,-0.18389 0.129801,-0.48135 0.205518,-0.63279 -0.751766,0.0649 -2.038963,0.0757 -2.687969,0.0487 -0.551656,-0.0216 -0.935652,-0.17848 -1.141171,-0.54084 z m 1.065453,0.5192 h 0.551656 v 0.21634 H 94.6897 Z m 1.179029,0 h 0.57329 v 0.21634 h -0.57329 z M 94.6897,147.15268 h 0.551656 v 0.21092 H 94.6897 Z m 1.179029,0 h 0.57329 v 0.21092 h -0.57329 z m -2.038963,1.38995 v 0.47053 h 1.41159 v 0.35155 h 0.627373 v -0.35155 h 1.481899 v -0.47053 h -1.481899 v -0.1947 h 1.157396 v -1.59548 h -1.157396 v -0.20011 h 1.24393 v -0.44348 h -1.24393 v -0.27583 h -0.627373 v 0.27583 h -1.211479 v 0.44348 h 1.211479 v 0.20011 h -1.103312 v 1.59548 h 1.103312 v 0.1947 z" />
      <path
         d="m 100.24855,144.57592 0.0219,0.60984 c 0.74534,-0.0272 1.4909,-0.0401 2.23621,-0.0393 l 0.001,-0.61079 c -0.75274,-5.6e-4 -1.50596,0.0126 -2.25918,0.0403 z m 1.35342,2.9053 c 0.13258,0.25832 0.2575,0.56367 0.35509,0.85556 -0.28507,0.0218 -0.56967,0.0458 -0.85376,0.0719 0.1241,-0.48805 0.26436,-1.14647 0.36792,-1.73604 0.4076,-0.006 0.81537,-0.009 1.22324,-0.007 l 0.003,-0.61085 c -0.86979,-0.004 -1.7395,0.0107 -2.60836,0.0455 l 0.0242,0.6097 c 0.21712,-0.009 0.43432,-0.016 0.65159,-0.0221 -0.059,0.58605 -0.16271,1.28445 -0.27103,1.78063 -0.1487,0.0139 -0.29726,0.0285 -0.44568,0.0437 0.0475,0.21059 0.0945,0.42125 0.14111,0.63197 0.57494,-0.0751 1.19653,-0.15295 1.93434,-0.23035 0.0267,0.10787 0.0428,0.21613 0.0587,0.30786 0.19217,-0.0798 0.38526,-0.15861 0.57922,-0.23649 -0.0865,-0.47983 -0.32435,-1.18258 -0.61379,-1.73063 -0.18269,0.0746 -0.36465,0.15008 -0.54585,0.22638 z m -3.874551,-1.76085 0.161435,1.95772 c 0.252059,-0.0207 0.504323,-0.0396 0.756774,-0.0567 l 0.02081,0.30695 c -0.314604,0.0212 -0.628893,0.0453 -0.942826,0.0724 l 0.04868,0.56453 c 0.310443,-0.0267 0.621285,-0.0505 0.932484,-0.0715 l 0.05805,0.85621 c 0.190847,-0.0128 0.381858,-0.0246 0.573023,-0.0352 l -0.04848,-0.85694 c 0.295873,-0.0166 0.592045,-0.0307 0.888478,-0.0423 l -0.0226,-0.56653 c -0.299542,0.0118 -0.598859,0.0261 -0.897915,0.0429 l -0.01738,-0.30721 c 0.266968,-0.015 0.534124,-0.0281 0.801446,-0.0391 l -0.08193,-1.96376 c -0.273215,0.0115 -0.54637,0.025 -0.819443,0.0405 l -0.01671,-0.29643 c 0.296792,-0.0168 0.593662,-0.0313 0.890581,-0.0435 l -0.02253,-0.55572 c -0.299807,0.0124 -0.599599,0.0271 -0.899346,0.0441 l -0.02887,-0.51202 c -0.213621,0.0122 -0.427235,0.0256 -0.640831,0.0402 l 0.03469,0.51158 c -0.30716,0.021 -0.61425,0.0445 -0.921238,0.0705 l 0.04695,0.55387 c 0.303841,-0.0258 0.607818,-0.049 0.9119,-0.0697 l 0.02008,0.29617 c -0.261868,0.0178 -0.523643,0.0375 -0.785304,0.0591 z m 0.595472,1.14998 c 0.111793,-0.008 0.223616,-0.016 0.335467,-0.0234 l 0.02116,0.31775 c -0.111185,0.007 -0.22234,0.0151 -0.333462,0.0232 z m 0.806486,-0.0527 c 0.120953,-0.007 0.241936,-0.0136 0.362947,-0.0197 l 0.01625,0.31811 c -0.120307,0.006 -0.240584,0.0127 -0.360826,0.0196 -0.0061,-0.10598 -0.01225,-0.21197 -0.01837,-0.31796 z m -0.860265,-0.68476 c 0.113351,-0.008 0.226726,-0.0162 0.340122,-0.0238 l 0.02116,0.31775 c -0.112731,0.008 -0.225437,0.0154 -0.338118,0.0236 z m 0.817605,-0.0536 c 0.122602,-0.007 0.245226,-0.0138 0.367871,-0.0201 l 0.01625,0.31811 c -0.121941,0.006 -0.243859,0.0129 -0.365751,0.0199 0,0 -0.01837,-0.31796 -0.01837,-0.31796 z"
         style="stroke-width:0.548717"
         id="path1047"
         inkscape:original-d="m 100.45504,145.48148 v 0.61115 h 2.16877 v -0.61115 z m 1.26016,2.94217 c 0.1298,0.2596 0.25419,0.56788 0.35154,0.85993 l -0.87616,0.0595 c 0.14062,-0.49216 0.29206,-1.13576 0.40563,-1.73068 h 1.21689 v -0.61115 h -2.56898 v 0.61115 h 0.649 c -0.0757,0.58951 -0.20011,1.27638 -0.32991,1.77395 l -0.45971,0.027 0.11898,0.63819 c 0.55707,-0.0487 1.29261,-0.11898 2.01192,-0.18929 0.0271,0.10817 0.0433,0.21633 0.0595,0.30828 l 0.60033,-0.23797 c -0.0919,-0.47594 -0.34073,-1.18444 -0.62738,-1.73069 z m -3.758832,-1.94702 v 1.96865 h 0.767991 v 0.30828 h -0.962693 v 0.56788 h 0.962693 v 0.85993 h 0.600331 v -0.85993 h 0.91402 v -0.56788 h -0.91402 v -0.30828 h 0.81126 v -1.96865 h -0.800443 v -0.29746 h 0.865343 v -0.55707 h -0.865343 v -0.5138 h -0.611148 v 0.5138 h -0.886976 v 0.55707 h 0.886976 v 0.29746 z m 0.497572,1.19525 h 0.33532 v 0.3191 h -0.33532 z m 0.80585,0 h 0.362362 v 0.3191 H 99.25979 Z m -0.80585,-0.74095 h 0.33532 v 0.3191 h -0.33532 z m 0.80585,0 h 0.362362 v 0.3191 H 99.25979 Z" />
      <path
         d="m 105.18193,144.28534 -0.17624,4.08721 c -0.63597,-0.0279 -1.27161,-0.0461 -1.9066,-0.0541 l -0.008,0.65417 c 1.5961,0.0207 3.19775,0.10657 4.79941,0.24791 l 0.0574,-0.65283 c -0.75279,-0.0663 -1.50586,-0.12053 -2.25864,-0.16154 l 0.10106,-1.87552 c 0.64563,0.0347 1.29089,0.0789 1.93547,0.13199 l 0.0538,-0.65309 c -0.65058,-0.0535 -1.30203,-0.098 -1.95404,-0.13291 l 0.0839,-1.55663 c -0.24245,-0.0129 -0.48503,-0.0244 -0.72773,-0.0347 z"
         style="stroke-width:0.548717"
         id="path1049"
         inkscape:original-d="m 105.18198,145.1732 v 4.08875 h -1.94702 v 0.65441 h 4.94867 v -0.65441 h -2.30397 v -1.87671 h 1.91998 v -0.65442 h -1.91998 v -1.55762 z" />
      <path
         d="m 108.52258,147.23868 -0.06,0.63631 c 0.70875,0.0669 1.41688,0.14439 2.12395,0.23163 l -0.10693,0.86536 c -0.0133,0.10754 -0.0654,0.1392 -0.18204,0.13055 -0.10568,-0.0128 -0.59032,-0.0709 -0.95826,-0.12611 0.082,0.18397 0.17078,0.48105 0.18702,0.66898 0.53374,0.0646 0.91541,0.0967 1.17979,0.0317 0.26417,-0.0701 0.38167,-0.22895 0.43214,-0.61022 l 0.11583,-0.87498 c 0.70636,0.0933 1.41151,0.19612 2.115,0.30764 l 0.10034,-0.6303 c -0.70875,-0.1127 -1.41939,-0.21655 -2.13148,-0.31076 l 0.0839,-0.63343 c 0.60933,0.0807 1.21745,0.16853 1.82409,0.26288 l 0.0954,-0.6148 c -0.61104,-0.0953 -1.22374,-0.18391 -1.83782,-0.26541 l 0.0924,-0.69784 c 0.62011,0.0116 1.21439,-5.8e-4 1.72754,-0.0469 -0.13235,-0.20293 -0.26582,-0.40562 -0.40043,-0.60803 -0.91382,0.0956 -2.53547,0.0357 -3.84893,-0.041 0.0527,0.15269 0.1043,0.41811 0.10957,0.58795 0.53494,0.0327 1.14325,0.0669 1.71371,0.0893 l -0.0777,0.62886 c -0.59863,-0.0741 -1.19847,-0.14126 -1.79925,-0.20103 l -0.0617,0.61984 c 0.59573,0.0593 1.19067,0.12588 1.78457,0.19932 l -0.0784,0.63424 c -0.71295,-0.0881 -1.4272,-0.16624 -2.1423,-0.23372 z"
         style="stroke-width:0.548717"
         id="path1051"
         inkscape:original-d="m 108.63794,147.88822 v 0.63819 h 2.14713 v 0.87075 c 0,0.10817 -0.0487,0.14602 -0.16766,0.15143 -0.1298,0 -0.58411,0 -0.98433,-0.0162 0.10276,0.17307 0.22715,0.45971 0.26501,0.6436 0.55166,0.005 0.94647,-0.0108 1.20607,-0.10817 0.25961,-0.10276 0.35696,-0.27583 0.35696,-0.65983 v -0.88156 h 2.14713 v -0.63819 h -2.14713 v -0.63819 h 1.82263 v -0.62197 h -1.82263 v -0.70309 c 0.60033,-0.0703 1.16821,-0.16766 1.65497,-0.29205 l -0.47053,-0.54084 c -0.89239,0.23797 -2.3851,0.37859 -3.68853,0.43267 0.0649,0.14603 0.14062,0.40563 0.16225,0.57329 0.53003,-0.0216 1.10332,-0.0541 1.66579,-0.10276 v 0.63278 h -1.77395 v 0.62197 h 1.77395 v 0.63819 z" />
    </g>
  </g>
</svg>
