<?xml version="1.0" encoding="UTF-8" standalone="no"?>
<!-- Created with Inkscape (http://www.inkscape.org/) -->

<svg
   width="210mm"
   height="297mm"
   viewBox="0 0 210 297"
   version="1.1"
   id="svg5"
   inkscape:version="1.2.2 (b0a8486541, 2022-12-01)"
   sodipodi:docname="dead_trees.svg"
   xmlns:inkscape="http://www.inkscape.org/namespaces/inkscape"
   xmlns:sodipodi="http://sodipodi.sourceforge.net/DTD/sodipodi-0.dtd"
   xmlns="http://www.w3.org/2000/svg"
   xmlns:svg="http://www.w3.org/2000/svg">
  <sodipodi:namedview
     id="namedview7"
     pagecolor="#ffffff"
     bordercolor="#000000"
     borderopacity="0.25"
     inkscape:showpageshadow="2"
     inkscape:pageopacity="0.0"
     inkscape:pagecheckerboard="0"
     inkscape:deskcolor="#d1d1d1"
     inkscape:document-units="mm"
     showgrid="false"
     inkscape:zoom="0.68506594"
     inkscape:cx="872.17882"
     inkscape:cy="598.48254"
     inkscape:window-width="1920"
     inkscape:window-height="935"
     inkscape:window-x="0"
     inkscape:window-y="32"
     inkscape:window-maximized="1"
     inkscape:current-layer="layer1" />
  <defs
     id="defs2">
    <filter
       style="color-interpolation-filters:sRGB;"
       inkscape:label="Blur"
       id="filter2353"
       x="-0.27073242"
       y="-0.65452598"
       width="1.5414648"
       height="2.309052">
      <feGaussianBlur
         stdDeviation="11.2837 11.7317"
         result="blur"
         id="feGaussianBlur2351" />
    </filter>
    <filter
       style="color-interpolation-filters:sRGB"
       inkscape:label="Blur"
       id="filter2353-6"
       x="-0.27073242"
       y="-0.65452598"
       width="1.5414648"
       height="2.309052">
      <feGaussianBlur
         stdDeviation="11.2837 11.7317"
         result="blur"
         id="feGaussianBlur2351-7" />
    </filter>
    <filter
       style="color-interpolation-filters:sRGB"
       inkscape:label="Blur"
       id="filter2353-6-6"
       x="-0.27073242"
       y="-0.65452598"
       width="1.5414648"
       height="2.309052">
      <feGaussianBlur
         stdDeviation="11.2837 11.7317"
         result="blur"
         id="feGaussianBlur2351-7-2" />
    </filter>
  </defs>
  <g
     inkscape:label="Layer 1"
     inkscape:groupmode="layer"
     id="layer1">
    <ellipse
       style="fill:#000000;fill-opacity:0.469459;stroke:none;stroke-width:1.51762;stroke-linecap:round;stroke-linejoin:round;-inkscape-stroke:none;filter:url(#filter2353-6-6);stop-color:#000000"
       id="path1974-5-9"
       cx="68.099464"
       cy="185.54176"
       rx="50.014107"
       ry="21.508757"
       transform="matrix(0.58306353,0,0,0.5494709,274.14389,81.307355)"
       inkscape:export-filename="tree_3.png"
       inkscape:export-xdpi="45.317253"
       inkscape:export-ydpi="45.317253" />
    <path
       style="font-variation-settings:normal;opacity:1;vector-effect:none;fill:#804936;fill-opacity:1;stroke:#454545;stroke-width:0.859;stroke-linecap:round;stroke-linejoin:round;stroke-miterlimit:4;stroke-dasharray:none;stroke-dashoffset:0;stroke-opacity:1;-inkscape-stroke:none;stop-color:#000000;stop-opacity:1"
       d="m 305.6524,155.43036 c 0,0 -2.34072,7.30523 -2.10952,10.77961 0.23119,3.47438 -0.28615,6.85693 -0.28615,6.85693 0,0 -3.96091,0.17148 -5.13519,1.99746 -1.17426,1.82598 -5.03825,7.49303 -7.65262,8.04867 -2.61437,0.55565 2.80346,1.52447 8.57793,-0.26525 5.77446,-1.78971 11.02116,-2.03103 12.5583,0.23013 1.53715,2.26117 9.4205,5.90455 10.96692,5.80706 1.54646,-0.0975 3.78822,-5.98902 3.94585,-6.91297 0.15762,-0.92394 2.56128,-1.54391 4.58791,-1.43814 2.02664,0.10578 10.79464,1.2535 11.58843,-0.61564 0.79382,-1.86913 -6.95213,-4.14117 -8.8969,-6.69331 -1.94475,-2.55213 -2.42238,-10.3661 -2.42238,-10.3661 0,0 -11.20119,-8.81098 -25.72258,-7.42845 z"
       id="path3256" />
    <ellipse
       style="fill:#000000;fill-opacity:0.469459;stroke:none;stroke-width:1.15859;stroke-linecap:round;stroke-linejoin:round;-inkscape-stroke:none;filter:url(#filter2353);stop-color:#000000"
       id="path1974"
       cx="68.099464"
       cy="185.54176"
       rx="50.014107"
       ry="21.508757"
       transform="matrix(0.72662778,0,0,0.75651274,18.583006,39.661796)"
       inkscape:export-filename="tree_1.png"
       inkscape:export-xdpi="38.513287"
       inkscape:export-ydpi="38.513287" />
    <ellipse
       style="fill:#000000;fill-opacity:0.469459;stroke:none;stroke-width:1.51762;stroke-linecap:round;stroke-linejoin:round;-inkscape-stroke:none;filter:url(#filter2353-6);stop-color:#000000"
       id="path1974-5"
       cx="68.099464"
       cy="185.54176"
       rx="50.014107"
       ry="21.508757"
       transform="matrix(0.58306353,0,0,0.5494709,171.69082,82.160436)"
       inkscape:export-filename="tree_2.png"
       inkscape:export-xdpi="45.317253"
       inkscape:export-ydpi="45.317253" />
    <path
       style="fill:#b65454;fill-opacity:1;stroke:#454545;stroke-width:0.858999;stroke-linecap:round;stroke-linejoin:round;-inkscape-stroke:none;stop-color:#000000"
       d="m 58.17,158.18797 c 0,0 -4.0566,2.58166 -7.348501,5.86458 -3.291903,3.28292 -6.429054,9.26452 -10.01142,10.72368 -3.582366,1.45915 -8.954876,3.80412 -8.954876,3.80412 0,0 10.787155,2.00672 15.54308,0.21058 4.755925,-1.79615 7.751577,-7.24285 11.223316,-7.51594 3.471738,-0.2731 4.984378,7.09561 3.870512,14.72101 -1.203164,8.23672 6.67598,14.66621 6.67598,14.66621 0,0 9.308362,-15.00583 7.998989,-19.39399 -1.309372,-4.38815 0.262996,-9.06461 0.262996,-9.06461 0,0 4.825481,7.73097 8.879964,8.7619 4.054483,1.03092 18.5286,0.48473 18.5286,0.48473 0,0 -9.785399,-10.24791 -15.073364,-12.87439 -5.287965,-2.62648 -11.607591,-17.55617 -11.607591,-22.68369 0,-5.12751 -0.79808,-21.05468 3.732238,-23.67755 4.530317,-2.62286 21.297527,-11.70639 21.297527,-11.70639 l -0.33696,-5.30014 c 0,0 -17.04884,7.93564 -21.213469,6.95487 -4.164626,-0.98077 0.211327,-30.100771 0.211327,-30.100771 L 98.091134,65.348333 95.547012,59.990952 78.758467,77.078537 77.856637,53.880792 74.426129,49.192793 73.286418,54.78403 72.824183,77.134751 c 0,0 -5.497154,14.44086 -6.578769,15.643824 -3.762498,4.184617 -21.146476,-9.347241 -21.146476,-9.347241 l 1.074697,6.880844 c 0,0 13.53804,6.112082 16.022013,11.699362 3.523658,7.92588 6.250335,23.28087 4.629928,28.19818 -1.620408,4.91731 -20.404522,12.20785 -20.404522,12.20785 l -6.780263,-8.60446 -2.530895,2.00827 6.428654,8.89135 -6.886553,4.58657 0.823154,3.61847 7.369209,-4.09685 c 0,0 10.459894,-4.45771 13.931888,-1.44832 C 62.248241,150.382 58.17,158.18797 58.17,158.18797 Z"
       id="path790"
       sodipodi:nodetypes="csscssscscscsssccsccccccccsccssccccccczc" />
    <path
       style="fill:#b65454;fill-opacity:1;stroke:#454545;stroke-width:0.858999;stroke-linecap:round;stroke-linejoin:round;-inkscape-stroke:none;stop-color:#000000"
       d="m 66.166457,178.63254 c 0.0016,-3.90614 8.413173,-3.75463 7.446642,0.2358"
       id="path1797" />
    <path
       style="fill:#b65454;fill-opacity:1;stroke:#454545;stroke-width:0.858999;stroke-linecap:round;stroke-linejoin:round;-inkscape-stroke:none;stop-color:#000000"
       d="m 85.272826,175.83327 c 0,0 2.149517,-8.86009 6.681412,-6.02039"
       id="path1799" />
    <path
       style="fill:#b65454;fill-opacity:1;stroke:#454545;stroke-width:0.858999;stroke-linecap:round;stroke-linejoin:round;-inkscape-stroke:none;stop-color:#000000"
       d="m 44.892065,171.14392 c 0,0 3.389053,-3.42186 7.673719,-3.23108"
       id="path1801" />
    <path
       style="fill:none;fill-opacity:1;stroke:#454545;stroke-width:0.858999;stroke-linecap:round;stroke-linejoin:round;-inkscape-stroke:none;stop-color:#000000"
       d="m 57.766828,158.45391 c 0,0 5.447755,-3.51058 6.493205,-9.11041 1.045454,-5.59982 1.193843,-8.4731 1.193843,-8.4731"
       id="path1803" />
    <path
       style="fill:none;fill-opacity:1;stroke:#454545;stroke-width:0.858999;stroke-linecap:round;stroke-linejoin:round;-inkscape-stroke:none;stop-color:#000000"
       d="m 64.473803,168.45827 c 0,0 0.336527,-3.90932 2.313996,-9.82051 1.977469,-5.91118 5.183068,-17.45466 4.992296,-22.6815 -0.190775,-5.22685 -2.189533,-17.74459 -2.508623,-22.08874 -0.319093,-4.34414 -3.023394,-16.040162 -3.023394,-16.040162"
       id="path1805" />
    <path
       style="fill:none;fill-opacity:1;stroke:#454545;stroke-width:0.858999;stroke-linecap:round;stroke-linejoin:round;-inkscape-stroke:none;stop-color:#000000"
       d="m 73.475317,149.52824 c 0,0 2.275689,-10.83254 1.780165,-16.26208 -0.495523,-5.42955 -4.063021,-17.74163 -3.670581,-22.83425 0.392438,-5.09262 -0.206452,-13.721446 1.273953,-17.083993 1.480405,-3.362544 1.92976,-9.9871 1.92976,-9.9871"
       id="path1807" />
    <path
       style="fill:none;fill-opacity:1;stroke:#454545;stroke-width:0.858999;stroke-linecap:round;stroke-linejoin:round;-inkscape-stroke:none;stop-color:#000000"
       d="m 77.760461,88.155435 c 0,0 -3.143054,12.888675 -2.460347,19.424125 0.682707,6.53544 3.025066,13.20054 3.025066,13.20054"
       id="path1863" />
    <path
       style="fill:none;fill-opacity:1;stroke:#454545;stroke-width:0.858999;stroke-linecap:round;stroke-linejoin:round;-inkscape-stroke:none;stop-color:#000000"
       d="m 73.923074,154.30478 c 0,0 0.454401,4.45513 -1.094925,7.90466 -1.549323,3.44954 3.035835,2.81606 3.399457,6.1507 0.363622,3.33464 -1.205289,-8.69873 2.681284,-5.94128 3.886576,2.75744 -1.840304,-9.38266 -1.840304,-9.38266"
       id="path1865" />
    <path
       style="fill:none;fill-opacity:1;stroke:#454545;stroke-width:0.858999;stroke-linecap:round;stroke-linejoin:round;-inkscape-stroke:none;stop-color:#000000"
       d="m 52.46793,144.2065 c 0,0 4.115168,-3.81264 8.453678,-5.24785 4.338513,-1.43521 5.714926,-2.17769 5.714926,-2.17769"
       id="path1906" />
    <path
       style="font-variation-settings:normal;opacity:1;vector-effect:none;fill:#874c4c;fill-opacity:1;stroke:#454545;stroke-width:0.859001;stroke-linecap:round;stroke-linejoin:round;stroke-miterlimit:4;stroke-dasharray:none;stroke-dashoffset:0;stroke-opacity:1;-inkscape-stroke:none;stop-color:#000000;stop-opacity:1"
       d="m 192.24816,175.27164 c 2.91785,-2.33137 5.84897,-5.18319 10.5522,-6.06833 4.70322,-0.88515 3.73222,-7.59787 4.81117,-10.62821 1.07897,-3.03034 6.32797,-5.50995 1.9486,-12.66181 -4.37939,-7.15185 -12.28973,-11.25463 -14.21861,-14.8711 -1.92888,-3.61644 -7.93024,-17.5004 -7.93024,-17.5004 h 2.3991 l 6.41104,13.9894 -1.93008,-22.81977 h 1.3781 l 1.82539,10.859 3.42589,-6.02574 1.79912,1.06515 -5.12323,7.8442 1.6037,9.66028 c 0,0 5.63326,-0.88214 6.15161,-6.49879 0.51835,-5.61666 0.79909,-14.8914 -0.96488,-19.69167 -1.76398,-4.800278 -9.44188,-14.900848 -9.44188,-14.900848 l -1.67184,-6.7396 c 0,0 10.28033,12.428099 11.95202,16.302 1.67168,3.873908 4.5587,11.505378 6.5868,12.719528 2.02812,1.21415 5.20305,-18.587538 5.20305,-20.750205 0,-2.162658 -1.48219,-10.453307 -5.30977,-12.533647 -3.82757,-2.080341 -9.31391,-4.390638 -9.31391,-4.390638 l 1.23159,-3.287525 c 0,0 13.01045,5.39931 15.66646,9.87971 2.65599,4.4804 2.82164,7.449465 2.82164,7.449465 l 1.80529,-15.400594 3.29198,0.833372 -2.27198,15.305872 c 0,0 6.56646,-4.295511 11.04859,-3.705803 4.48215,0.589705 10.42752,2.940895 10.42752,2.940895 l -2.763,1.930702 c 0,0 -6.08047,-2.682952 -10.2725,-1.59462 -4.19205,1.088333 -10.10796,19.787746 -10.2818,26.865016 -0.17383,7.07728 1.28343,24.18442 4.34146,29.55478 3.05805,5.37035 9.83844,8.71847 9.83844,8.71847 l -0.27199,2.09674 c 0,0 -3.82628,-3.29505 -6.35498,-0.1962 -2.52869,3.09887 -4.74121,13.00353 -2.35772,14.92131 2.3835,1.91777 6.05597,10.96025 6.05597,10.96025 0,0 -5.0707,3.94029 -8.40296,4.89174 -3.33229,0.95141 -13.41815,-2.77619 -13.41815,-2.77619 0,0 -2.51205,1.2042 -10.1148,2.36627 -7.60277,1.16207 -17.06264,-0.52647 -17.06264,-0.52647 0,0 3.9824,-5.25462 6.90023,-7.58599 z"
       id="path2791"
       sodipodi:nodetypes="zssssccccccccccssccssssccsccccsccsssccsscscscz" />
    <path
       style="font-variation-settings:normal;opacity:1;vector-effect:none;fill:none;fill-opacity:1;stroke:#454545;stroke-width:0.859001;stroke-linecap:round;stroke-linejoin:round;stroke-miterlimit:4;stroke-dasharray:none;stroke-dashoffset:0;stroke-opacity:1;-inkscape-stroke:none;stop-color:#000000;stop-opacity:1"
       d="m 198.58188,183.25379 c 0,0 0.92985,-6.22744 4.40922,-7.14469 3.47937,-0.91726 10.41332,-3.37614 10.41332,-3.37614 l -0.53109,8.14993"
       id="path2867" />
    <path
       style="font-variation-settings:normal;opacity:1;vector-effect:none;fill:#b65454;fill-opacity:1;stroke:#454545;stroke-width:0.859001;stroke-linecap:round;stroke-linejoin:round;stroke-miterlimit:4;stroke-dasharray:none;stroke-dashoffset:0;stroke-opacity:1;-inkscape-stroke:none;stop-color:#000000;stop-opacity:1"
       d="m 213.52509,172.44671 c 0,0 2.73685,-4.6696 5.02406,-5.47789"
       id="path2869" />
    <path
       style="font-variation-settings:normal;opacity:1;vector-effect:none;fill:none;fill-opacity:1;stroke:#454545;stroke-width:0.859001;stroke-linecap:round;stroke-linejoin:round;stroke-miterlimit:4;stroke-dasharray:none;stroke-dashoffset:0;stroke-opacity:1;-inkscape-stroke:none;stop-color:#000000;stop-opacity:1"
       d="m 216.16664,177.81363 c 0,0 1.63002,-5.55723 4.9481,-6.3224 3.31806,-0.76517 8.33112,4.64946 8.33112,4.64946"
       id="path2871" />
    <path
       style="font-variation-settings:normal;opacity:1;vector-effect:none;fill:none;fill-opacity:1;stroke:#454545;stroke-width:0.859001;stroke-linecap:round;stroke-linejoin:round;stroke-miterlimit:4;stroke-dasharray:none;stroke-dashoffset:0;stroke-opacity:1;-inkscape-stroke:none;stop-color:#000000;stop-opacity:1"
       d="m 222.635,182.27815 c 0,0 -3.32781,-5.26281 -0.19482,-4.65786 3.13296,0.60496 7.62612,4.42739 0.19482,4.65786 z"
       id="path2873" />
    <path
       style="font-variation-settings:normal;opacity:1;vector-effect:none;fill:#b65454;fill-opacity:1;stroke:#454545;stroke-width:0.859001;stroke-linecap:round;stroke-linejoin:round;stroke-miterlimit:4;stroke-dasharray:none;stroke-dashoffset:0;stroke-opacity:1;-inkscape-stroke:none;stop-color:#000000;stop-opacity:1"
       d="m 203.90711,168.83309 c 0,0 5.73504,-1.54221 7.59373,-1.38991"
       id="path2875" />
    <path
       style="font-variation-settings:normal;opacity:1;vector-effect:none;fill:#b65454;fill-opacity:1;stroke:#454545;stroke-width:0.859001;stroke-linecap:round;stroke-linejoin:round;stroke-miterlimit:4;stroke-dasharray:none;stroke-dashoffset:0;stroke-opacity:1;-inkscape-stroke:none;stop-color:#000000;stop-opacity:1"
       d="m 208.27608,157.07314 c 0,0 4.95175,-7.06131 7.14926,-8.44785"
       id="path2877" />
    <path
       style="font-variation-settings:normal;opacity:1;vector-effect:none;fill:none;fill-opacity:1;stroke:#454545;stroke-width:0.859001;stroke-linecap:round;stroke-linejoin:round;stroke-miterlimit:4;stroke-dasharray:none;stroke-dashoffset:0;stroke-opacity:1;-inkscape-stroke:none;stop-color:#000000;stop-opacity:1"
       d="m 232.94799,151.64902 c 0,0 -4.48322,-2.50533 -6.43608,0.68054 -1.95287,3.18589 0.60764,10.91875 0.60764,10.91875"
       id="path2879" />
    <path
       style="font-variation-settings:normal;opacity:1;vector-effect:none;fill:none;fill-opacity:1;stroke:#454545;stroke-width:0.859001;stroke-linecap:round;stroke-linejoin:round;stroke-miterlimit:4;stroke-dasharray:none;stroke-dashoffset:0;stroke-opacity:1;-inkscape-stroke:none;stop-color:#000000;stop-opacity:1"
       d="m 222.90099,159.1415 c 0,0 -1.59003,-3.64877 -2.3536,-11.01976 -0.76357,-7.37101 1.41166,-16.80217 1.41166,-16.80217"
       id="path2881" />
    <path
       style="font-variation-settings:normal;opacity:1;vector-effect:none;fill:none;fill-opacity:1;stroke:#454545;stroke-width:0.859001;stroke-linecap:round;stroke-linejoin:round;stroke-miterlimit:4;stroke-dasharray:none;stroke-dashoffset:0;stroke-opacity:1;-inkscape-stroke:none;stop-color:#000000;stop-opacity:1"
       d="m 213.48183,143.69872 c 0,0 -5.79215,-4.84225 -7.28549,-8.68505 -1.49334,-3.8428 0.96726,-8.0799 0.96726,-8.0799"
       id="path2883" />
    <path
       style="font-variation-settings:normal;opacity:1;vector-effect:none;fill:#b65454;fill-opacity:1;stroke:#454545;stroke-width:0.859001;stroke-linecap:round;stroke-linejoin:round;stroke-miterlimit:4;stroke-dasharray:none;stroke-dashoffset:0;stroke-opacity:1;-inkscape-stroke:none;stop-color:#000000;stop-opacity:1"
       d="m 215.30428,138.64203 c 0,0 -1.07784,-2.05208 -2.46129,-10.36906 -1.38346,-8.317 -3.30322,-15.47362 -3.30322,-15.47362"
       id="path2885" />
    <path
       style="font-variation-settings:normal;opacity:1;vector-effect:none;fill:none;fill-opacity:1;stroke:#454545;stroke-width:0.859001;stroke-linecap:round;stroke-linejoin:round;stroke-miterlimit:4;stroke-dasharray:none;stroke-dashoffset:0;stroke-opacity:1;-inkscape-stroke:none;stop-color:#000000;stop-opacity:1"
       d="m 218.18223,126.89582 c 0,0 -1.56122,-4.19598 -1.96904,-10.68932 -0.40783,-6.49334 3.64614,-24.681679 3.64614,-24.681679"
       id="path2887" />
    <path
       style="font-variation-settings:normal;opacity:1;vector-effect:none;fill:none;fill-opacity:1;stroke:#454545;stroke-width:0.859001;stroke-linecap:round;stroke-linejoin:round;stroke-miterlimit:4;stroke-dasharray:none;stroke-dashoffset:0;stroke-opacity:1;-inkscape-stroke:none;stop-color:#000000;stop-opacity:1"
       d="m 224.79361,89.601687 c 0,0 -4.68456,6.570375 -4.81863,14.049763 -0.13406,7.47938 0.55264,19.78389 0.55264,19.78389"
       id="path2889" />
    <path
       style="font-variation-settings:normal;opacity:1;vector-effect:none;fill:none;fill-opacity:1;stroke:#454545;stroke-width:0.859001;stroke-linecap:round;stroke-linejoin:round;stroke-miterlimit:4;stroke-dasharray:none;stroke-dashoffset:0;stroke-opacity:1;-inkscape-stroke:none;stop-color:#000000;stop-opacity:1"
       d="m 217.07603,153.53076 c 0,0 -4.80185,2.02772 -5.67699,4.49678 -0.87516,2.46908 1.19287,6.50907 1.19287,6.50907 0,0 4.42579,-1.63903 5.15978,-4.10484 0.73397,-2.46583 -0.67566,-6.90101 -0.67566,-6.90101 z"
       id="path2891" />
    <path
       style="font-variation-settings:normal;opacity:1;vector-effect:none;fill:#c9ce4c;fill-opacity:1;stroke:#454545;stroke-width:0.858991;stroke-linecap:round;stroke-linejoin:round;stroke-miterlimit:4;stroke-dasharray:none;stroke-dashoffset:0;stroke-opacity:1;-inkscape-stroke:none;stop-color:#000000;stop-opacity:1"
       d="m 305.54383,155.23401 c 0,0 -1.50766,3.20213 3.33341,6.26542 4.84104,3.06329 19.16842,4.09878 21.48814,3.42607 2.31976,-0.67271 0.69419,-8.64405 -6.12278,-9.53831 -6.81699,-0.89426 -16.97457,-3.7728 -18.69877,-0.15318 z"
       id="path3125" />
    <path
       style="font-variation-settings:normal;opacity:1;vector-effect:none;fill:#c9ce4c;fill-opacity:1;stroke:#454545;stroke-width:0.858991;stroke-linecap:round;stroke-linejoin:round;stroke-miterlimit:4;stroke-dasharray:none;stroke-dashoffset:0;stroke-opacity:1;-inkscape-stroke:none;stop-color:#000000;stop-opacity:1"
       d="m 309.82688,155.50755 c -0.87211,1.36158 -0.77477,4.34756 2.65357,5.51273 3.42832,1.16516 13.06323,2.32774 13.77359,2.07006 0.71035,-0.25769 2.13732,-4.2865 -2.2705,-5.33775 -4.40778,-1.05126 -14.15666,-2.24504 -14.15666,-2.24504 z"
       id="path3181" />
    <path
       style="font-variation-settings:normal;opacity:1;vector-effect:none;fill:#c9ce4c;fill-opacity:0.469459;stroke:#454545;stroke-width:0.858991;stroke-linecap:round;stroke-linejoin:round;stroke-miterlimit:4;stroke-dasharray:none;stroke-dashoffset:0;stroke-opacity:1;-inkscape-stroke:none;stop-color:#000000;stop-opacity:1"
       d="m 323.68837,161.71877 c -6.88363,-1.49797 -10.76653,-2.79133 -10.76653,-3.52659 0,-0.73527 5.63976,-0.39886 7.16729,0.3972 1.52755,0.79607 3.59924,3.12939 3.59924,3.12939 z"
       id="path3183"
       sodipodi:nodetypes="cssc" />
    <path
       style="font-variation-settings:normal;opacity:1;vector-effect:none;fill:none;fill-opacity:1;stroke:#454545;stroke-width:0.859;stroke-linecap:round;stroke-linejoin:round;stroke-miterlimit:4;stroke-dasharray:none;stroke-dashoffset:0;stroke-opacity:1;-inkscape-stroke:none;stop-color:#000000;stop-opacity:1"
       d="m 307.82975,174.34872 c 0,0 3.74084,2.7854 3.56476,3.99289 -0.17608,1.20749 -0.19815,4.11613 -0.19815,4.11613"
       id="path3312" />
    <path
       style="font-variation-settings:normal;opacity:1;vector-effect:none;fill:none;fill-opacity:1;stroke:#454545;stroke-width:0.859;stroke-linecap:round;stroke-linejoin:round;stroke-miterlimit:4;stroke-dasharray:none;stroke-dashoffset:0;stroke-opacity:1;-inkscape-stroke:none;stop-color:#000000;stop-opacity:1"
       d="m 326.50045,181.51421 c 0,0 0.88264,-1.76013 -1.85725,-6.0711"
       id="path3314" />
    <path
       style="font-variation-settings:normal;opacity:1;vector-effect:none;fill:none;fill-opacity:1;stroke:#454545;stroke-width:0.859;stroke-linecap:round;stroke-linejoin:round;stroke-miterlimit:4;stroke-dasharray:none;stroke-dashoffset:0;stroke-opacity:1;-inkscape-stroke:none;stop-color:#000000;stop-opacity:1"
       d="m 335.34308,174.55234 c 0,0 -7.04894,-3.48674 -10.1757,-4.30197 -3.1268,-0.81524 -2.38919,-2.37978 -2.38919,-2.37978"
       id="path3316" />
    <path
       style="font-variation-settings:normal;opacity:1;vector-effect:none;fill:none;fill-opacity:1;stroke:#454545;stroke-width:0.859;stroke-linecap:round;stroke-linejoin:round;stroke-miterlimit:4;stroke-dasharray:none;stroke-dashoffset:0;stroke-opacity:1;-inkscape-stroke:none;stop-color:#000000;stop-opacity:1"
       d="m 308.60072,171.09524 c 0,0 -2.64867,-1.63429 -2.23962,-3.6514 0.40907,-2.01712 1.26458,-3.41718 1.26458,-3.41718"
       id="path3318" />
    <path
       style="font-variation-settings:normal;opacity:1;vector-effect:none;fill:none;fill-opacity:1;stroke:#454545;stroke-width:0.859;stroke-linecap:round;stroke-linejoin:round;stroke-miterlimit:4;stroke-dasharray:none;stroke-dashoffset:0;stroke-opacity:1;-inkscape-stroke:none;stop-color:#000000;stop-opacity:1"
       d="m 320.35369,180.54923 c 0,0 0.65179,-1.56298 0.18421,-4.11382 -0.46761,-2.55084 -2.93327,-9.13973 -2.93327,-9.13973"
       id="path3322" />
  </g>
</svg>
