<?xml version="1.0" encoding="UTF-8" standalone="no"?>
<!-- Created with Inkscape (http://www.inkscape.org/) -->

<svg
   width="210mm"
   height="297mm"
   viewBox="0 0 210 297"
   version="1.1"
   id="svg5"
   inkscape:version="1.2.2 (b0a8486541, 2022-12-01)"
   sodipodi:docname="smoke.svg"
   xmlns:inkscape="http://www.inkscape.org/namespaces/inkscape"
   xmlns:sodipodi="http://sodipodi.sourceforge.net/DTD/sodipodi-0.dtd"
   xmlns="http://www.w3.org/2000/svg"
   xmlns:svg="http://www.w3.org/2000/svg">
  <sodipodi:namedview
     id="namedview7"
     pagecolor="#ffffff"
     bordercolor="#000000"
     borderopacity="0.25"
     inkscape:showpageshadow="2"
     inkscape:pageopacity="0.0"
     inkscape:pagecheckerboard="0"
     inkscape:deskcolor="#d1d1d1"
     inkscape:document-units="mm"
     showgrid="false"
     inkscape:zoom="1.3701319"
     inkscape:cx="317.12276"
     inkscape:cy="249.61101"
     inkscape:window-width="1920"
     inkscape:window-height="935"
     inkscape:window-x="0"
     inkscape:window-y="32"
     inkscape:window-maximized="1"
     inkscape:current-layer="layer1" />
  <defs
     id="defs2" />
  <g
     inkscape:label="Layer 1"
     inkscape:groupmode="layer"
     id="layer1">
    <path
       id="path842"
       style="fill:#828282;fill-opacity:1;stroke:#454545;stroke-width:0.859001;stroke-linecap:round;stroke-linejoin:round;-inkscape-stroke:none;stop-color:#000000;stroke-opacity:1"
       d="M 23.878129 47.437931 A 10.304883 10.237994 0 0 0 13.573332 57.676066 A 10.304883 10.237994 0 0 0 14.060124 60.776652 A 17.332579 16.519896 0 0 0 6.1934204 74.604749 A 17.332579 16.519896 0 0 0 23.525696 91.12467 A 17.332579 16.519896 0 0 0 36.575545 85.460417 A 6.8693504 6.8693504 0 0 0 38.713916 85.805098 A 6.8693504 6.8693504 0 0 0 45.583264 78.93575 A 6.8693504 6.8693504 0 0 0 45.560527 78.379195 A 14.986677 14.986677 0 0 0 53.817904 64.996549 A 14.986677 14.986677 0 0 0 38.831222 50.009867 A 14.986677 14.986677 0 0 0 32.159277 51.583931 A 10.304883 10.237994 0 0 0 23.878129 47.437931 z "
       inkscape:export-filename="smoke_1.png"
       inkscape:export-xdpi="72.985649"
       inkscape:export-ydpi="72.985649" />
    <path
       style="fill:#828282;fill-opacity:1;stroke:#454545;stroke-width:0.858999;stroke-linecap:round;stroke-linejoin:round;stroke-opacity:1;-inkscape-stroke:none;stop-color:#000000"
       d="m 14.741543,66.023534 c 0,0 0.342174,6.768402 5.400172,9.18309 5.057998,2.414685 15.018756,1.593709 15.018756,1.593709"
       id="path1119" />
    <path
       style="fill:#828282;fill-opacity:1;stroke:#454545;stroke-width:0.858999;stroke-linecap:round;stroke-linejoin:round;stroke-opacity:1;-inkscape-stroke:none;stop-color:#000000"
       d="m 26.713378,61.212912 c 0,0 2.646582,-3.239006 7.882731,-2.289371 5.236149,0.949637 9.492456,10.803691 5.200526,14.204206"
       id="path1121" />
    <path
       style="fill:#828282;fill-opacity:1;stroke:#454545;stroke-width:0.858999;stroke-linecap:round;stroke-linejoin:round;stroke-opacity:1;-inkscape-stroke:none;stop-color:#000000"
       d="m 27.708725,85.69027 c 0,0 -4.4095,2.183921 -8.993082,0.396637 -4.583582,-1.787287 -6.64874,-6.317102 -6.64874,-6.317102"
       id="path1123" />
    <path
       id="path1125"
       style="fill:#828282;fill-opacity:1;stroke:#454545;stroke-width:0.858999;stroke-linecap:round;stroke-linejoin:round;stroke-opacity:1;-inkscape-stroke:none;stop-color:#000000"
       d="m 97.503058,51.41927 a 9.5136404,12.034816 39.108175 0 0 -14.27535,2.543241 7.0770316,7.2228174 39.108175 0 0 -5.07438,2.678518 7.0770316,7.2228174 39.108175 0 0 0.935457,10.068721 7.0770316,7.2228174 39.108175 0 0 1.161654,0.759187 9.5136404,12.034816 39.108175 0 0 1.843907,2.425969 7.2527313,7.5280256 39.108175 0 0 -8.471024,2.367444 7.2527313,7.5280256 39.108175 0 0 0.879146,10.416533 7.2527313,7.5280256 39.108175 0 0 10.376548,-1.266612 7.2527313,7.5280256 39.108175 0 0 1.734968,-4.909016 6.8547764,6.0537982 39.108175 0 0 0.997563,0.977427 6.8547764,6.0537982 39.108175 0 0 9.137403,-0.373917 6.8547764,6.0537982 39.108175 0 0 -1.076262,-8.649454 9.5136404,12.034816 39.108175 0 0 1.62139,-1.698794 9.5136404,12.034816 39.108175 0 0 0.20898,-15.339247 z M 84.909224,71.467245 a 6.8547764,6.0537982 39.108175 0 0 -0.02451,0.388979 7.2527313,7.5280256 39.108175 0 0 -0.594478,-0.6098 9.5136404,12.034816 39.108175 0 0 0.618993,0.220817 z"
       inkscape:export-filename="smoke_2.png"
       inkscape:export-xdpi="68.771538"
       inkscape:export-ydpi="68.771538" />
    <path
       style="fill:#828282;fill-opacity:1;stroke:#454545;stroke-width:0.858999;stroke-linecap:round;stroke-linejoin:round;stroke-opacity:1;-inkscape-stroke:none;stop-color:#000000"
       d="m 90.827757,54.428834 c 0,0 -5.022373,1.611228 -5.512967,4.439344 -0.490597,2.828115 1.059753,7.285774 1.059753,7.285774"
       id="path1134" />
    <path
       style="fill:#828282;fill-opacity:1;stroke:#454545;stroke-width:0.858999;stroke-linecap:round;stroke-linejoin:round;stroke-opacity:1;-inkscape-stroke:none;stop-color:#000000"
       d="m 76.246712,77.287129 c 0,0 0.888711,1.345115 2.799284,1.145376 1.910575,-0.199739 4.20025,-2.54842 4.20025,-2.54842"
       id="path1136" />
    <path
       id="path1138"
       style="fill:#828282;fill-opacity:1;stroke:#454545;stroke-width:0.858996;stroke-linecap:round;stroke-linejoin:round;stroke-opacity:1;-inkscape-stroke:none;stop-color:#000000"
       d="m 132.02185,51.315142 a 10.558597,10.119555 0 0 0 -10.55869,10.119253 10.558597,10.119555 0 0 0 5.75844,9.006629 9.9510195,9.8064685 0 0 0 -5.01947,8.515894 9.9510195,9.8064685 0 0 0 9.9508,9.806328 9.9510195,9.8064685 0 0 0 9.95127,-9.806328 9.9510195,9.8064685 0 0 0 -0.1634,-1.766644 11.439823,11.318256 0 0 0 4.8127,-2.215567 6.3372743,6.2954658 0 0 0 5.53643,3.238407 6.3372743,6.2954658 0 0 0 6.3377,-6.295485 6.3372743,6.2954658 0 0 0 -6.3377,-6.295486 6.3372743,6.2954658 0 0 0 -1.21298,0.121034 11.439823,11.318256 0 0 0 -11.08626,-10.94668 10.558597,10.119555 0 0 0 -7.96884,-3.481355 z"
       inkscape:export-filename="smoke_3.png"
       inkscape:export-xdpi="81.408691"
       inkscape:export-ydpi="81.408691" />
    <path
       style="fill:#828282;fill-opacity:1;stroke:#454545;stroke-width:0.858999;stroke-linecap:round;stroke-linejoin:round;stroke-opacity:1;-inkscape-stroke:none;stop-color:#000000"
       d="m 141.80152,59.051151 c 0,0 0.99658,5.022995 -1.1444,8.002053 -2.14099,2.97906 -8.1731,3.690672 -8.1731,3.690672 0,0 4.60446,1.28388 5.87218,3.123238 1.26773,1.839358 1.16791,2.543122 1.16791,2.543122"
       id="path1147" />
    <path
       style="fill:#828282;fill-opacity:1;stroke:#454545;stroke-width:0.858999;stroke-linecap:round;stroke-linejoin:round;stroke-opacity:1;-inkscape-stroke:none;stop-color:#000000"
       d="m 147.67015,65.472437 c -3.39185,-1.782739 -6.7485,3.179545 -3.84337,5.839869"
       id="path1149" />
    <ellipse
       style="fill:#828282;fill-opacity:1;stroke:#454545;stroke-width:0.858999;stroke-linecap:round;stroke-linejoin:round;stroke-opacity:1;-inkscape-stroke:none;stop-color:#000000"
       id="path1893"
       cx="149.36885"
       cy="86.869797"
       rx="3.5899086"
       ry="3.5231183" />
  </g>
</svg>
